<?xml version="1.0" encoding="UTF-8"?>
<svg xmlns="http://www.w3.org/2000/svg" xmlns:xlink="http://www.w3.org/1999/xlink" viewBox="0 0 3651.38 3527.63">
  <defs>
    <style>
      .uuid-f12e3e95-5f07-4ce7-9eae-6273d72c63ed, .uuid-cafea679-1fb5-4e18-96a1-28c09fe12a62, .uuid-cd3407b1-f152-4868-be60-66cf24feebb3, .uuid-2bdbe35b-7c26-4e0e-b985-6d00ee6e094f, .uuid-65a5322e-ab0e-4bb5-a253-8271e9b40834, .uuid-583d139b-a666-40d8-9883-2f3e44dde1d5, .uuid-1c4f724c-77a3-4c61-8c7f-63cb50ea9500, .uuid-21b156e1-74c9-40c4-befb-ca761c4b716f, .uuid-447353b6-b438-4f1f-91ee-c1ce61873d76, .uuid-49c982b5-dd20-456a-8782-61eff55d8ab2, .uuid-b093405e-c8f3-490c-ac4e-7528c5ae997a, .uuid-a9002d1d-dbf0-4ce7-9f35-e3f7655422bd, .uuid-8a4a9928-e4d3-4ed1-9a1e-b9e21d5b4327, .uuid-8e49c174-4b97-4c50-81c2-a9d1bfdbe5a9, .uuid-2ec429ea-4a22-4ba0-bd5c-e3757c60a00f, .uuid-715d40be-b17d-4047-b5a2-84480c877e0b, .uuid-cc7498e3-5e63-4128-90c6-c306dc0d556b, .uuid-3c7acf7a-379a-4e73-9193-2d0bad1dd95e, .uuid-e9378502-eda7-4630-ba5e-ded565111dcb, .uuid-5b9df43d-6e59-47ac-9c2d-ae29785fb3df {
        stroke-miterlimit: 10;
      }

      .uuid-f12e3e95-5f07-4ce7-9eae-6273d72c63ed, .uuid-cafea679-1fb5-4e18-96a1-28c09fe12a62, .uuid-cd3407b1-f152-4868-be60-66cf24feebb3, .uuid-2bdbe35b-7c26-4e0e-b985-6d00ee6e094f, .uuid-65a5322e-ab0e-4bb5-a253-8271e9b40834, .uuid-583d139b-a666-40d8-9883-2f3e44dde1d5, .uuid-1c4f724c-77a3-4c61-8c7f-63cb50ea9500, .uuid-21b156e1-74c9-40c4-befb-ca761c4b716f, .uuid-447353b6-b438-4f1f-91ee-c1ce61873d76, .uuid-49c982b5-dd20-456a-8782-61eff55d8ab2, .uuid-b093405e-c8f3-490c-ac4e-7528c5ae997a, .uuid-a9002d1d-dbf0-4ce7-9f35-e3f7655422bd, .uuid-8e49c174-4b97-4c50-81c2-a9d1bfdbe5a9, .uuid-2ec429ea-4a22-4ba0-bd5c-e3757c60a00f, .uuid-715d40be-b17d-4047-b5a2-84480c877e0b, .uuid-cc7498e3-5e63-4128-90c6-c306dc0d556b, .uuid-3c7acf7a-379a-4e73-9193-2d0bad1dd95e, .uuid-5b9df43d-6e59-47ac-9c2d-ae29785fb3df {
        stroke: #000;
      }

      .uuid-f12e3e95-5f07-4ce7-9eae-6273d72c63ed, .uuid-447353b6-b438-4f1f-91ee-c1ce61873d76 {
        fill: #c16764;
        stroke-width: 5.6px;
      }

      .uuid-253e4944-c1fb-4304-9677-762f3cce7232 {
        fill: #0d4a00;
      }

      .uuid-253e4944-c1fb-4304-9677-762f3cce7232, .uuid-046f35ff-0e8f-4eb8-865a-94fdf7e9a66e, .uuid-d43ed825-47f7-4940-a48a-0474afc12829, .uuid-7776d22d-c0cd-4c79-a7ba-6a40260142c4, .uuid-22e1e9fc-45e1-4c1e-96ba-57c22e26e2e9, .uuid-f100ea70-28d5-4629-9514-30751ccd08d9, .uuid-993ff026-a2ff-409f-b323-8cc3166e13d2, .uuid-8d3de582-1e46-422e-af21-160f56977dae, .uuid-76820a89-30c2-4cf0-a2d6-a41654684199, .uuid-4acdbe55-9b3f-405e-ab95-903be46c9cf9, .uuid-b8bd4720-cb0f-4f11-a5d7-3fbb4b44c472, .uuid-fdfe1745-c5c6-4fce-856c-7382deedd144, .uuid-b5360494-4bb9-435f-b731-6b9b12533d2a, .uuid-14b28a14-f5a3-4b7d-8176-1a1dcc2e42d6, .uuid-9fb95eca-80b9-4ac8-bbcf-e7e9ee8db47c, .uuid-3d8c5525-1839-4552-8dfd-c7afc93fe48b, .uuid-24d0b890-fa44-4e65-8167-bdcb04d1ed70, .uuid-358b7d9f-d2b3-493e-ae5f-682652c8f22b, .uuid-cc356d36-9b50-4de2-bdad-16dbe9911b52, .uuid-d270ea93-1b78-4492-b837-e017d8cbc916, .uuid-839cddbd-6a34-4bcd-b2e9-9242f4911281, .uuid-b9693df8-081d-4bfc-92c1-90bd00aa6ae8, .uuid-7f126fd8-9570-476c-830c-35946e31a0e7, .uuid-87577677-ec49-4c38-a46b-1846a0290f9c, .uuid-8805bc31-df66-4efb-a30e-9edd7140eb85 {
        stroke-width: 0px;
      }

      .uuid-046f35ff-0e8f-4eb8-865a-94fdf7e9a66e, .uuid-a62e79ec-998f-4d2c-99da-696d9b200aa8 {
        opacity: .99;
      }

      .uuid-d43ed825-47f7-4940-a48a-0474afc12829 {
        fill: #5fa9ac;
      }

      .uuid-cafea679-1fb5-4e18-96a1-28c09fe12a62 {
        fill: #b5ffc4;
      }

      .uuid-cafea679-1fb5-4e18-96a1-28c09fe12a62, .uuid-cd3407b1-f152-4868-be60-66cf24feebb3, .uuid-65a5322e-ab0e-4bb5-a253-8271e9b40834, .uuid-583d139b-a666-40d8-9883-2f3e44dde1d5, .uuid-1c4f724c-77a3-4c61-8c7f-63cb50ea9500, .uuid-21b156e1-74c9-40c4-befb-ca761c4b716f, .uuid-49c982b5-dd20-456a-8782-61eff55d8ab2, .uuid-a9002d1d-dbf0-4ce7-9f35-e3f7655422bd, .uuid-715d40be-b17d-4047-b5a2-84480c877e0b, .uuid-cc7498e3-5e63-4128-90c6-c306dc0d556b {
        stroke-width: 4.45px;
      }

      .uuid-cd3407b1-f152-4868-be60-66cf24feebb3 {
        fill: #ea0051;
      }

      .uuid-2bdbe35b-7c26-4e0e-b985-6d00ee6e094f {
        stroke-width: 5.59px;
      }

      .uuid-2bdbe35b-7c26-4e0e-b985-6d00ee6e094f, .uuid-76820a89-30c2-4cf0-a2d6-a41654684199, .uuid-a9002d1d-dbf0-4ce7-9f35-e3f7655422bd, .uuid-8e49c174-4b97-4c50-81c2-a9d1bfdbe5a9, .uuid-2ec429ea-4a22-4ba0-bd5c-e3757c60a00f, .uuid-3c7acf7a-379a-4e73-9193-2d0bad1dd95e, .uuid-e9378502-eda7-4630-ba5e-ded565111dcb {
        fill: none;
      }

      .uuid-65a5322e-ab0e-4bb5-a253-8271e9b40834 {
        fill: #60bb9c;
      }

      .uuid-583d139b-a666-40d8-9883-2f3e44dde1d5 {
        fill: #f7e500;
      }

      .uuid-1c4f724c-77a3-4c61-8c7f-63cb50ea9500 {
        fill: #0a0a67;
      }

      .uuid-21b156e1-74c9-40c4-befb-ca761c4b716f {
        fill: #4c7c80;
      }

      .uuid-7776d22d-c0cd-4c79-a7ba-6a40260142c4 {
        fill: #ffcd0f;
      }

      .uuid-22e1e9fc-45e1-4c1e-96ba-57c22e26e2e9, .uuid-993ff026-a2ff-409f-b323-8cc3166e13d2, .uuid-14b28a14-f5a3-4b7d-8176-1a1dcc2e42d6, .uuid-cc356d36-9b50-4de2-bdad-16dbe9911b52, .uuid-8805bc31-df66-4efb-a30e-9edd7140eb85 {
        fill: #fff;
      }

      .uuid-22e1e9fc-45e1-4c1e-96ba-57c22e26e2e9, .uuid-839cddbd-6a34-4bcd-b2e9-9242f4911281 {
        opacity: .15;
      }

      .uuid-993ff026-a2ff-409f-b323-8cc3166e13d2 {
        opacity: .5;
      }

      .uuid-8d3de582-1e46-422e-af21-160f56977dae {
        fill: #00a99d;
      }

      .uuid-447353b6-b438-4f1f-91ee-c1ce61873d76, .uuid-a9002d1d-dbf0-4ce7-9f35-e3f7655422bd, .uuid-8a4a9928-e4d3-4ed1-9a1e-b9e21d5b4327, .uuid-8e49c174-4b97-4c50-81c2-a9d1bfdbe5a9, .uuid-2ec429ea-4a22-4ba0-bd5c-e3757c60a00f, .uuid-e9378502-eda7-4630-ba5e-ded565111dcb, .uuid-5b9df43d-6e59-47ac-9c2d-ae29785fb3df {
        stroke-linecap: round;
      }

      .uuid-4acdbe55-9b3f-405e-ab95-903be46c9cf9, .uuid-8805bc31-df66-4efb-a30e-9edd7140eb85 {
        opacity: .2;
      }

      .uuid-49c982b5-dd20-456a-8782-61eff55d8ab2 {
        fill: #122e29;
      }

      .uuid-b8bd4720-cb0f-4f11-a5d7-3fbb4b44c472 {
        fill: #36b0de;
      }

      .uuid-b093405e-c8f3-490c-ac4e-7528c5ae997a {
        stroke-width: 2.8px;
      }

      .uuid-fdfe1745-c5c6-4fce-856c-7382deedd144 {
        fill: #bcde5b;
      }

      .uuid-b5360494-4bb9-435f-b731-6b9b12533d2a {
        fill: #028b9c;
      }

      .uuid-9fb95eca-80b9-4ac8-bbcf-e7e9ee8db47c {
        fill: #1b1314;
      }

      .uuid-8a4a9928-e4d3-4ed1-9a1e-b9e21d5b4327 {
        fill: #739da1;
      }

      .uuid-8a4a9928-e4d3-4ed1-9a1e-b9e21d5b4327, .uuid-e9378502-eda7-4630-ba5e-ded565111dcb {
        stroke: #9ad1d7;
        stroke-width: 4.67px;
      }

      .uuid-3d8c5525-1839-4552-8dfd-c7afc93fe48b {
        fill: #ff8074;
      }

      .uuid-8e49c174-4b97-4c50-81c2-a9d1bfdbe5a9, .uuid-2ec429ea-4a22-4ba0-bd5c-e3757c60a00f {
        stroke-width: 4.1px;
      }

      .uuid-24d0b890-fa44-4e65-8167-bdcb04d1ed70 {
        fill: #012327;
      }

      .uuid-2ec429ea-4a22-4ba0-bd5c-e3757c60a00f {
        stroke-dasharray: 0 0 17.17 10.3;
      }

      .uuid-358b7d9f-d2b3-493e-ae5f-682652c8f22b {
        fill: #edd28a;
      }

      .uuid-cc356d36-9b50-4de2-bdad-16dbe9911b52 {
        opacity: .25;
      }

      .uuid-715d40be-b17d-4047-b5a2-84480c877e0b {
        fill: #17f61d;
      }

      .uuid-d270ea93-1b78-4492-b837-e017d8cbc916 {
        fill: #9ccdd5;
      }

      .uuid-cc7498e3-5e63-4128-90c6-c306dc0d556b {
        fill: #01e7ed;
      }

      .uuid-4a7fd36f-2b4e-4205-93fd-30b2379f066e {
        clip-path: url(#uuid-58617835-addb-4047-a24d-4c750a7dde97);
      }

      .uuid-b9693df8-081d-4bfc-92c1-90bd00aa6ae8 {
        fill: #a85846;
      }

      .uuid-7f126fd8-9570-476c-830c-35946e31a0e7 {
        fill: #ecbcb2;
      }

      .uuid-87577677-ec49-4c38-a46b-1846a0290f9c {
        fill: #53413c;
      }

      .uuid-3c7acf7a-379a-4e73-9193-2d0bad1dd95e {
        stroke-width: 9px;
      }

      .uuid-5b9df43d-6e59-47ac-9c2d-ae29785fb3df {
        stroke-width: 3.41px;
      }
    </style>
    <clipPath id="uuid-58617835-addb-4047-a24d-4c750a7dde97">
      <circle class="uuid-76820a89-30c2-4cf0-a2d6-a41654684199" cx="1722.36" cy="1485.71" r="790.75"/>
    </clipPath>
  </defs>
  <g id="uuid-299f3766-e723-446c-91a6-efd7722fcce6" data-name="Capa 10">
    <circle class="uuid-d270ea93-1b78-4492-b837-e017d8cbc916" cx="1722.36" cy="1485.71" r="790.75"/>
    <path class="uuid-14b28a14-f5a3-4b7d-8176-1a1dcc2e42d6" d="m2480.85,1251.49c-14.24,17.29-31.53,1.01-31.53,1.01-9.16,17.29-38.65,1.02-38.65,1.02-33.56,34.58-82.39,1.02-82.39,1.02-7.64,11.07-15.82,17.36-23.76,20.59-13.67,5.59-26.6,2.14-34.73-1.49t0,0c-5.36-2.39-8.63-4.87-8.63-4.87-2.51,2.27-4.98,4.46-7.42,6.57-134.06,115.96-164.48-9.62-164.48-9.62-53.69,60.65-93.77-1.16-95.55-3.97-.04-.07-.06-.1-.06-.1-13.44,10.65-25.49,16.06-36,18.16h0c-15.43,3.1-27.56-.9-35.94-5.81-8.82-5.16-13.49-11.34-13.49-11.34-30.51,34.58-77.3,1.02-77.3,1.02-62.05,62.05-87.48-6.11-87.48-6.11-26.16,12.27-45.11,2.18-50.46-4.36-1.31-1.59-1.8-2.97-1.4-3.77,2.03-4.07,27.46-1.02,27.46-1.02,76.29-73.23,160.71,40.69,169.87-8.13,9.15-48.83,69.16-46.79,69.16-46.79-26.44-97.65,93.58-72.22,93.58-72.22,115.95-166.81,155.62,1.02,155.62,1.02,92.56,0,30.51,84.42,30.51,84.42,38.65-19.33,55.94,13.23,55.94,13.23,43.74-73.23,91.55,10.17,91.55,10.17,36.61-29.49,67.13,0,67.13,0,16.88-4.02,24.87,11.65,27.47,18.4.69,1.8,1.01,2.96,1.01,2.96Z"/>
    <path class="uuid-14b28a14-f5a3-4b7d-8176-1a1dcc2e42d6" d="m2231.31,937.96s-44.36,36.44-125.96-.79c0,0-1.49,4.72-4.79,11.04-10.64,20.36-40.14,57.32-99.37,6.24-1.69-1.46-3.41-3-5.16-4.6,0,0-1.89,2.42-5.23,6.08-16.44,17.98-67.93,65.74-101.28.76h0c-1.22-2.39-2.42-4.94-3.6-7.64,0,0-31.69,11.88-38.02-15.05,0,0-29.43,32.38-53.54,7.07-.91-.95-1.81-1.99-2.7-3.1,0,0,12.67-23.77,35.65-3.96,0,0,9.51-31.69,34.07-21.39,0,0-3.17-77.63,72.89-26.14,0,0,88.72-131.5,125.96,0,0,0,68.92-45.94,110.12,34.07,0,0,10.3-22.97,31.69,4.76,0,0,22.27-7.16,40.32-1.75,7.43,2.22,14.15,6.58,18.3,14.43,14.26,26.93-29.31,0-29.31,0Z"/>
    <path class="uuid-14b28a14-f5a3-4b7d-8176-1a1dcc2e42d6" d="m1437.46,1378.49c-.84,1.05-1.68,2.02-2.52,2.93-25.59,27.43-56.99-7.12-56.99-7.12-2.71,11.51-9.81,16.32-17.28,17.97-1.97.43-3.97.65-5.92.69-8.99.28-17.02-2.74-17.02-2.74-1.4,3.22-2.84,6.24-4.31,9.03-42.5,81.08-112.19-8.19-112.19-8.19-63.7,58.75-96.38,23.51-109.12.98-4.54-8-6.56-14.39-6.56-14.39-86.32,39.4-133.26.84-133.26.84,0,0-46,28.44-31.06.08.01-.03.03-.05.04-.08,15.08-28.49,62.02-13.41,62.02-13.41,22.64-29.33,33.53-5.03,33.53-5.03,43.57-84.64,116.5-36.04,116.5-36.04,39.39-139.13,133.27,0,133.27,0,80.46-54.47,77.11,27.67,77.11,27.67,25.97-10.89,36.03,22.63,36.03,22.63,24.31-20.96,37.72,4.19,37.72,4.19Z"/>
    <path class="uuid-14b28a14-f5a3-4b7d-8176-1a1dcc2e42d6" d="m1073.17,1124.46c9.39,6.29,22.8-.93,22.8-.93,12.69,22.91,28.55,6.35,28.55,6.35.93,2.39,1.9,4.59,2.9,6.62,20,40.88,51.03,12.41,51.03,12.41,45.82,48.99,80.71-3.52,80.71-3.52,24.2,14.91,41.96,2.35,50.57-6.74,3.81-4.02,5.82-7.36,5.82-7.36,30.31,35.24,58.51,3.53,58.51,3.53,22.2,14.1,29.25-3.53,29.25-3.53,1.48,1.54,2.96,2.92,4.45,4.16,7.26,6.06,14.57,8.75,21.31,9.52,16.92,1.91,30.28-8.39,30.28-8.39,13.1,12.52,28.37,8.2,30.9,1.95.54-1.32.5-2.72-.23-4.07-4.23-7.75-19.74-5.28-19.74-5.28-21.85-39.12-37.01-15.16-37.01-15.16-27.49-47.93-31.37-1.76-31.37-1.76-17.27-21.15-27.14,13.75-27.14,13.75-15.51-16.92-29.96,3.52-29.96,3.52-12.34-39.47-34.54-29.6-34.54-29.6,16.21-76.84-69.08-24.32-69.08-24.32-34.19-20.09-44.41,27.84-44.41,27.84-25.03-24.67-43.35,4.93-43.35,4.93-24.67-25.38-54.98,8.81-54.98,8.81-10.58-9.87-20.22-5.32-25.46-1.19-.94.75-1.56,1.73-1.85,2.79-.57,2.05.11,4.38,2.05,5.68Z"/>
    <path class="uuid-839cddbd-6a34-4bcd-b2e9-9242f4911281" d="m1434.94,1381.43c-25.59,27.43-56.99-7.12-56.99-7.12-2.71,11.51-9.81,16.32-17.28,17.97-1.97.43-3.97.65-5.92.69-8.99.28-17.02-2.74-17.02-2.74-1.4,3.22-2.84,6.24-4.31,9.03-42.5,81.08-112.19-8.19-112.19-8.19-63.7,58.75-96.38,23.51-109.12.98-4.54-8-6.56-14.39-6.56-14.39-86.32,39.4-133.26.84-133.26.84,0,0-46,28.44-31.06.08,7.91,1.07,21.47.62,33.25-11.16,0,0,26.17,24.79,61.97,0,0,0,85.39,12.39,117.06-30.3,0,0,37.18,27.54,66.11-2.75,0,0,24.79,48.2,74.37,6.89,0,0,16.53,48.2,64.73,20.66,0,0,12.39,11.02,28.92,4.13,0,0,10.44,27.83,47.29,15.38Z"/>
    <path class="uuid-839cddbd-6a34-4bcd-b2e9-9242f4911281" d="m1333.42,1399.26c-42.5,81.08-112.19-8.19-112.19-8.19-63.7,58.75-96.38,23.51-109.12.98,16.24-4.63,31.47-12.6,41.41-26,0,0,37.18,27.54,66.11-2.75,0,0,24.79,48.2,74.37,6.89,0,0,10.56,30.79,39.42,29.09Z"/>
    <path class="uuid-839cddbd-6a34-4bcd-b2e9-9242f4911281" d="m1643.62,887.5c-1.08.23-2.17.35-3.25.38.71-.35,1.44-.75,2.18-1.17,0,0,.37.33,1.06.79Z"/>
    <path class="uuid-839cddbd-6a34-4bcd-b2e9-9242f4911281" d="m2231.31,937.96s-44.36,36.44-125.96-.79c0,0-1.49,4.72-4.79,11.04-10.64,20.36-40.14,57.32-99.37,6.24-1.69-1.46-3.41-3-5.16-4.6,0,0-1.89,2.42-5.23,6.08-16.44,17.98-67.93,65.74-101.28.76h0c-1.22-2.39-2.42-4.94-3.6-7.64,0,0-31.69,11.88-38.02-15.05,0,0-29.43,32.38-53.54,7.07,12.19,1.16,34.1.02,59.21-16.24,0,0,49.07,17.36,69.45-6.04,0,0,67.19,35.48,133.62-15.1,0,0,62.66,36.24,111.73,24.91,0,0,13.59,17.36,33.22,2.26,0,0,21.49,7.59,40.76-7.33,7.43,2.22,14.15,6.58,18.3,14.43,14.26,26.93-29.31,0-29.31,0Z"/>
    <path class="uuid-839cddbd-6a34-4bcd-b2e9-9242f4911281" d="m2100.56,948.21c-10.64,20.36-40.14,57.32-99.37,6.24,17.49-3.25,36.5-10.67,55.44-25.09,0,0,18.83,10.89,43.94,18.86Z"/>
    <path class="uuid-839cddbd-6a34-4bcd-b2e9-9242f4911281" d="m1161.57,1319.91s41.94-41.19,99.6-4.49c0,0-49.42-66.65-99.6,4.49Z"/>
    <path class="uuid-839cddbd-6a34-4bcd-b2e9-9242f4911281" d="m1300.34,1323.98s26.95-4.19,44.9,23.5c0,0-8.19-36.34-44.9-23.5Z"/>
    <path class="uuid-839cddbd-6a34-4bcd-b2e9-9242f4911281" d="m1055.6,1358.64s24.26-33.77,72.69-21.77c0,0-47.21-32.33-72.69,21.77Z"/>
    <path class="uuid-839cddbd-6a34-4bcd-b2e9-9242f4911281" d="m2073.26,897.79s42.41-13.87,82.15,23.83c0,0-27.07-53.73-82.15-23.83Z"/>
    <path class="uuid-839cddbd-6a34-4bcd-b2e9-9242f4911281" d="m2480.85,1251.49c-14.24,17.29-31.53,1.01-31.53,1.01-9.16,17.29-38.65,1.02-38.65,1.02-33.56,34.58-82.39,1.02-82.39,1.02-7.64,11.07-15.82,17.36-23.76,20.59-13.67,5.59-26.6,2.14-34.73-1.49t0,0c-5.36-2.39-8.63-4.87-8.63-4.87-2.51,2.27-4.98,4.46-7.42,6.57-134.06,115.96-164.48-9.62-164.48-9.62-53.69,60.65-93.77-1.16-95.55-3.97-.04-.07-.06-.1-.06-.1-13.44,10.65-25.49,16.06-36,18.16h0c-15.43,3.1-27.56-.9-35.94-5.81-8.82-5.16-13.49-11.34-13.49-11.34-30.51,34.58-77.3,1.02-77.3,1.02-62.05,62.05-87.48-6.11-87.48-6.11-26.16,12.27-45.11,2.18-50.46-4.36,11.48,2.41,35.12,4.78,56.39-9.41,0,0,24.91,37.74,80.77,3.02,0,0,51.33,38.5,92.85-11.32,0,0,49.07,26.42,77.75-20.38,0,0,78.51,32.46,89.83-40.76,0,0,28.69,76.24,119.27,40.76,0,0,35.48,43.78,80.77,11.32,0,0,37.74,45.29,96.63,9.06,0,0,21.89,30.2,61.9,0,0,0,7.18,18.19,30.69,13.01.69,1.8,1.01,2.96,1.01,2.96Z"/>
    <path class="uuid-839cddbd-6a34-4bcd-b2e9-9242f4911281" d="m2253.73,1275.34c-134.06,115.96-164.48-9.62-164.48-9.62-53.69,60.65-93.77-1.16-95.55-3.97,2.45-2.8,4.8-5.99,7.03-9.63,0,0,78.51,32.46,89.83-40.76,0,0,28.69,76.24,119.27,40.76,0,0,17.63,21.75,43.89,23.22Z"/>
    <path class="uuid-839cddbd-6a34-4bcd-b2e9-9242f4911281" d="m2304.51,1275.13c-13.67,5.59-26.6,2.14-34.73-1.49,6.62-1.78,13.6-5.02,20.83-10.2,0,0,4.89,5.87,13.9,11.69Z"/>
    <path class="uuid-839cddbd-6a34-4bcd-b2e9-9242f4911281" d="m1978.08,1184.18s23.4-48.31,98.14-13.59c0,0-70.96-77-98.14,13.59Z"/>
    <path class="uuid-839cddbd-6a34-4bcd-b2e9-9242f4911281" d="m1303.44,1096.6s-11.79-24.35-49.46-6.85c0,0,35.76-38.81,49.46,6.85Z"/>
    <path class="uuid-839cddbd-6a34-4bcd-b2e9-9242f4911281" d="m1161.63,1114.49s7.76-16.02,32.53-4.5c0,0-23.52-25.52-32.53,4.5Z"/>
    <path class="uuid-839cddbd-6a34-4bcd-b2e9-9242f4911281" d="m1116.74,1117.15s7.76-16.02,32.53-4.5c0,0-23.52-25.52-32.53,4.5Z"/>
    <path class="uuid-839cddbd-6a34-4bcd-b2e9-9242f4911281" d="m2121.64,1144.84s44.72-29.7,91.41,38.21c0,0-21.94-102.39-91.41-38.21Z"/>
    <path class="uuid-839cddbd-6a34-4bcd-b2e9-9242f4911281" d="m1073.17,1124.46c9.39,6.29,22.8-.93,22.8-.93,12.69,22.91,28.55,6.35,28.55,6.35.93,2.39,1.9,4.59,2.9,6.62,20,40.88,51.03,12.41,51.03,12.41,45.82,48.99,80.71-3.52,80.71-3.52,24.2,14.91,41.96,2.35,50.57-6.74,3.81-4.02,5.82-7.36,5.82-7.36,30.31,35.24,58.51,3.53,58.51,3.53,22.2,14.1,29.25-3.53,29.25-3.53,1.48,1.54,2.96,2.92,4.45,4.16,7.26,6.06,14.57,8.75,21.31,9.52,16.92,1.91,30.28-8.39,30.28-8.39,13.1,12.52,28.37,8.2,30.9,1.95-5.34.13-23.36-.36-34.61-12.25,0,0-26.25,10.27-46.41-15.22,0,0-2.66,23.97-28.15,12.55,0,0-12.94,17.88-36.52,9.51,0,0-23.21,3.42-43.75-23.21,0,0-31.58,30.06-59.35-11.03,0,0-14.84,49.84-63.92,15.6,0,0-9.51,36.52-47.94.38,0,0-12.94,19.02-30.82,4.57,0,0-17.68,7.82-27.64-.65-.57,2.05.11,4.38,2.05,5.68Z"/>
    <path class="uuid-839cddbd-6a34-4bcd-b2e9-9242f4911281" d="m1379.78,1094.76s-.27,2.42-1.46,5.36c7.26,6.06,14.57,8.75,21.31,9.52-6.54-2.37-13.5-6.85-19.85-14.88Z"/>
    <path class="uuid-839cddbd-6a34-4bcd-b2e9-9242f4911281" d="m1127.41,1136.49c20,40.88,51.03,12.41,51.03,12.41,45.82,48.99,80.71-3.52,80.71-3.52,24.2,14.91,41.96,2.35,50.57-6.74-2.98-2.68-5.98-5.88-8.93-9.71,0,0-31.58,30.06-59.35-11.03,0,0-14.84,49.84-63.92,15.6,0,0-9.51,36.52-47.94.38,0,0-.76,1.12-2.17,2.61Z"/>
    <g class="uuid-4a7fd36f-2b4e-4205-93fd-30b2379f066e">
      <g>
        <path class="uuid-14b28a14-f5a3-4b7d-8176-1a1dcc2e42d6" d="m1687.72,1132.86c0-31.11-25.31-56.42-56.42-56.42s-56.42,25.31-56.42,56.42,25.31,56.42,56.42,56.42,56.42-25.31,56.42-56.42Z"/>
        <path class="uuid-14b28a14-f5a3-4b7d-8176-1a1dcc2e42d6" d="m1516.49,1209.56c-.01-17.39,1.38-35.33,3.38-48.09.21-1.33.43-2.6.65-3.86-8.88-20.86-29.15-34.31-51.89-34.31-5.6,0-11.12.82-16.41,2.43-.28.08-.48.14-.69.21l-.56.18c-1.29.42-2.6.91-3.94,1.47l-.31.11c-21,8.89-34.52,29.3-34.52,52.03,0,31.11,25.32,56.41,56.43,56.41,19.64,0,37.48-9.93,47.87-26.58Z"/>
        <circle class="uuid-253e4944-c1fb-4304-9677-762f3cce7232" cx="1651.86" cy="1115.72" r="22.18"/>
        <circle class="uuid-253e4944-c1fb-4304-9677-762f3cce7232" cx="1448.67" cy="1199.05" r="22.18"/>
        <path class="uuid-3d8c5525-1839-4552-8dfd-c7afc93fe48b" d="m1608.42,1238.98c1.46-1.58,3.99-7.24-4.05-25.6-14.93-34.1-54.25-82.93-66.77-82.93-2.68,0-8.26,6.71-12.21,31.88-6.88,43.88-2.42,94.69,5.91,97.36,5.91,1.9,10.78,1.99,14.08.27,1.59-.83,2.56-1.94,3.13-2.82-4.23-2.29-7.24-4.8-7.51-5.03l3.61-4.26c3.4,2.87,13.65,9.7,20.25,6.9,5.51-2.34,7.23-11.06,7.7-17.97l5.57.38c-.12,1.8-.31,3.49-.56,5.09,3.29,2.04,18.43,10.2,30.86-3.27Z"/>
        <path class="uuid-7f126fd8-9570-476c-830c-35946e31a0e7" d="m1454.62,1083.35c-2.89,4.41-7.94,11.59-14.62,19.14,8.61-4.25,17.59-7.23,26.03-8.98-.25-.1-.51-.17-.75-.27-5.27-2.28-8.66-6.53-10.65-9.89Z"/>
        <path class="uuid-9fb95eca-80b9-4ac8-bbcf-e7e9ee8db47c" d="m1410.52,999.13c.25-4.46,2-14.19,11.4-25.69,2.01-2.45,4.36-4.99,7.13-7.57-2.73-4.65-11.2-20.96-6.81-37.45,2.67-10.05,9.59-18.18,20.58-24.21-.39-3.8-.71-12.24,2.63-20.34-19.1,18.77-30.9,38.1-38.17,54.56-13.42,30.4-14.26,56.66-14.09,65.46,7.36-2.51,13.97-4.05,17.33-4.76Z"/>
        <path class="uuid-87577677-ec49-4c38-a46b-1846a0290f9c" d="m1427.64,929.82c-3.57,13.38,2.94,27.24,5.71,32.29,22.25-18.34,66-38.14,151.81-47.89,5.4-17.16,4.66-30.02-2.24-38.24-12.24-14.57-40.07-10.44-40.35-10.39l-1.4.22-1-1c-9.67-9.67-19.52-14.09-29.3-13.14-16.42,1.6-27.47,17.77-27.58,17.93l-.88,1.3-1.57-.07c-11.92-.55-20.72,2.31-26.16,8.49-8.81,10.02-6.13,25.81-6.11,25.97l.36,2.04-1.85.94c-10.52,5.35-17.07,12.6-19.46,21.56Z"/>
        <path class="uuid-87577677-ec49-4c38-a46b-1846a0290f9c" d="m1452.54,1076.14l3.15-5.39,1.92,5.94c.03.08,2.84,8.39,9.91,11.44,4.36,1.87,9.58,1.41,15.52-1.39,19.87-9.35,18.05-31.7,17.93-32.96,0-.02,0-.04,0-.05l5.56-.54s0,.01,0,.03c.01.12,1.31,12.3,10.9,18.76,7.26,4.89,17.5,5.42,30.42,1.59,4.66-1.38,8.81-2.94,12.52-4.59,4.43-4.22,10.8-8.28,18.46-11.76,10.58-9.73,11.93-18.92,11.95-19.06l.39-3.05,3,.69c.32.08,32.6,7.12,54.61-16.12,9.87-10.42,13.5-21.83,10.23-32.13-3.7-11.64-15.66-20.29-32.83-23.72-34.22-6.84-56.41,5.42-56.63,5.55l-1.65.93-1.48-1.18c-.25-.2-25.03-19.78-50.51-14.7-14.33,2.86-26.36,13-35.74,30.13l-1.26,2.3-2.38-1.12c-.9-.42-12.29-5.63-25.51-5.63-12.53,0-26.71,4.67-35.2,22.52l-.61,1.29-1.41.25c-11.53,2.08-42.57,10.59-47.67,24.75-1.85,5.14-.2,10.67,5.06,16.9l.86,1.02-.25,1.31c-.11.57-10.65,57.04,4.93,74.56,3.18,3.57,7.19,5.14,12.3,4.77,34.57-2.47,63.22-50.84,63.51-51.33Z"/>
        <path class="uuid-87577677-ec49-4c38-a46b-1846a0290f9c" d="m1634.6,1052.36c-1.99-.11-3.98-.17-5.96-.17-17.41,0-34.13,4.25-46.82,9.9-4.54,4.02-10.49,8.04-18.29,11.6-1.86,1.86-3.19,3.69-3.9,5.41-1.09,2.65-.63,4.67,1.5,6.55l.43.38c7.19,6.24,17.82,6.29,25.26.1,12.8-10.64,42.1-26.09,96.8-13.53-5.36-6.97-18.71-18.51-49.03-20.25Z"/>
        <path class="uuid-7f126fd8-9570-476c-830c-35946e31a0e7" d="m1504.62,1107.7c-2.16,6.82-7.37,11.88-13.79,14.1,13.16,5.02,24.31,14.46,31.49,26.94,3.74-15.84,8.86-23.87,15.28-23.87,8.25,0,21.86,12.48,35.35,28.96-2.36-6.55-3.65-13.61-3.65-20.96,0-14.25,4.85-27.39,12.96-37.87-2.62.89-5.35,1.35-8.07,1.35-5.81,0-11.6-2.03-16.27-6.08l-.47-.41c-3.81-3.37-4.88-7.8-3.09-12.49-1.58.54-3.2,1.08-4.9,1.58-14.63,4.34-26.47,3.55-35.19-2.35-4.13-2.8-6.99-6.36-8.97-9.84-2.06,8.52-7.19,19-19.69,24.97,6.59.29,12,1.69,15.42,4.18,3.81,2.78,5.14,6.79,3.77,11.28l-.17.53Z"/>
        <path class="uuid-fdfe1745-c5c6-4fce-856c-7382deedd144" d="m1426.55,976.61c-3.16,3.81-5.35,7.37-6.89,10.55,19.12-19.88,48.33-10.76,56.86-7.48,10.05-17.35,22.94-27.69,38.35-30.75,24.64-4.9,47.64,10.34,53.61,14.72,4.77-2.3,19.35-8.23,40.84-7.43l-5.15-38.32c-115.08,10.41-160.1,37.63-177.61,58.71Z"/>
        <path class="uuid-7f126fd8-9570-476c-830c-35946e31a0e7" d="m1802.26,1165.2c-.15,4.01-.21,8.8.14,13.7,17.89-15.42,15.39-29.39-.8-42.73-.06,9.75.32,19.51.66,29.03Z"/>
        <path class="uuid-7f126fd8-9570-476c-830c-35946e31a0e7" d="m1779.41,1120.52c10.2,31.73,17.1,65,21.76,96.3,11.04,8.06,20.14,10.51,27.06,7.24,15.29-7.22,16.72-39.37,16.73-39.69l.03-.85.5-.69c21.55-29.53-2.71-48.26-3.76-49.04l-2.04-1.53,1.34-2.17c.14-.23,14.03-23.11,8.65-43.61-2.5-9.54-8.87-17.2-18.91-22.76-7.53-4.16-14.28-4.72-20.65-1.69-20.97,9.95-30.01,54.79-30.73,58.49Zm36.25,67.43c15.07-10.97,14.71-26.49,13.01-43.38,10.51,14.44,7.2,40.28-13.01,43.38Zm10.07-115.49c16.55,5.28,14.68,30.69,12.49,44.34.11-12.08.32-25.73-6.8-35.93-3.44-4.68-9.57-5.7-14.72-3.74-5.11,2.28-7.76,8.25-9.55,13.46-2.59,8.87-4.05,18.08-4.82,27.42,5.7-10.1,14.87-16.07,24.61-2.07-14.64-13.53-20.59,1.54-23.85,14.5,8.14,6.07,16.15,14.53,16.47,25.26.12,10.88-8.1,19.27-17.14,23.72,1.03,13.26,5.21,27.17,19.3,28.48-20.9.7-24.06-28.05-23.9-42.31-1.87-19.17-2.38-38.48.05-57.63,1.99-14.85,7.48-40.57,27.85-35.5Z"/>
        <path class="uuid-9fb95eca-80b9-4ac8-bbcf-e7e9ee8db47c" d="m1830.62,1229.12c-2.75,1.3-5.7,1.95-8.84,1.95-3.2,0-6.62-.72-10.22-2.06,2.04,16.11,10.22,76.58,22.5,116.83,8.88-1.28,31.1-8.28,34.56-45.35,3.38-36.25-11.85-83.62-19.4-104.38-1.98,11.26-6.82,27.46-18.59,33.02Z"/>
        <path class="uuid-7f126fd8-9570-476c-830c-35946e31a0e7" d="m1802.25,1224.29c.19,1.36.38,2.72.56,4.07,7.75,57.88-14.49,100.44-34.52,125.94-21.66,27.59-44.82,41.33-45.79,41.9l-.39-.66c-3.95,13.22-12.99,26.57-31.36,36.5-29.21,15.79-57.21,23.92-80.46,23.92-13.55,0-25.48-2.76-35.11-8.38-.63-.37-1.22-.78-1.83-1.17,3.43,12.75,10.79,43.03,15.17,82.42.78,7,6.87,12.76,18.12,17.13,58.62,22.78,241.72-1.76,294.81-48.2,52.44-45.89,48-74.64,46.05-81.12-13.51-.99-93.11-8.48-111.18-48.36-18.24-40.25-29.6-132.5-30.74-142.02-1.1-.6-2.21-1.25-3.34-1.96Z"/>
        <path class="uuid-8d3de582-1e46-422e-af21-160f56977dae" d="m1639.07,961.23c-.38.03-.78.05-1.17.07.34.13.68.26,1.02.39l.15-.47Z"/>
        <path class="uuid-9fb95eca-80b9-4ac8-bbcf-e7e9ee8db47c" d="m1510.34,846.1c11.17-1.08,22.19,3.55,32.8,13.78,6.29-.73,31.41-2.57,44.07,12.51,7.87,9.37,9.2,23.22,3.99,41.18,4.89-.52,9.91-1,15.07-1.46,1.71-.23,25.15-3.2,53.33,0l1.71.19.6,1.61c.1.26.92,2.57,1.77,6.35,7.29,1.83,51.38,12.24,76.64,3.05l2.95-1.07.73,3.05c.27,1.15,6.63,28.41-.78,46.6l-.59,1.44-1.53.26c-.74.13-8.73,1.42-22.14,1.42-17.96,0-45.69-2.33-78.84-12.85,6.99,2.87,12.77,6.76,17.07,11.48l.55-1.77c59.55,18.5,96,74.52,118.28,138.47,3.94-15.35,13.63-44.74,31.74-53.34,1.1-.52,2.22-.95,3.35-1.3-9.06-70-52.3-165.39-126.77-211.63-45.6-28.32-95.1-33.38-147.1-15.04-29.84,10.53-53.4,23.66-71.99,37.77,4.25-1.17,9.02-1.73,14.37-1.6,3.22-4.26,14.46-17.51,30.74-19.09Z"/>
        <path class="uuid-fdfe1745-c5c6-4fce-856c-7382deedd144" d="m1663.66,956.59l-1.38.56c-.28.12-3.62,1.44-10.6,2.62,45.52,12.61,79.4,9.47,86.9,8.53,4.62-13.17,1.91-31.6.57-38.73-25.08,7.41-62.59-.46-74.38-3.28,1.07,7.38,1.52,17.51-.82,28.84l-.3,1.46Z"/>
        <path class="uuid-8d3de582-1e46-422e-af21-160f56977dae" d="m1657.17,917.46c-21.64-2.27-40.56-.82-47.45-.12l5.17,38.47c25.95,1.24,39.74-2.1,43.91-3.37,3.04-16.58-.28-30.41-1.63-34.98Z"/>
        <path class="uuid-b8bd4720-cb0f-4f11-a5d7-3fbb4b44c472" d="m1139.58,1916.62c54.82,13.13,70.1-12.3,82.38-32.72.03-.05.06-.09.08-.14-9.55,2.46-19.72,3.85-30.62,3.85-8.82,0-18.1-.9-27.88-2.84-55.35-10.98-82.75-46.06-95.99-73.55-10.76-22.35-14.11-43.01-15.13-52.33-7.69,6.28-23.76,21.99-20.07,41.05,5.53,28.54,48.67,102.66,107.23,116.67Z"/>
        <path class="uuid-b5360494-4bb9-435f-b731-6b9b12533d2a" d="m1537.14,1536.4c13.62,37.44,42.38,59.97,85.49,66.98,70.15,11.4,216-3.69,306.25-72.31,41.62-31.64,65.54-70.52,71.13-115.58-15.98-4.93-40.64-8.99-47.36-1.15,2.6,7.38,8.64,38.47-47.53,87.62-24.53,21.47-79.46,40.59-146.94,51.14-30.66,4.8-59.89,7.18-85.32,7.18-28.77,0-52.66-3.05-68.25-9.11-13.34-5.18-20.62-12.49-21.65-21.72-4.4-39.6-11.83-69.84-15.14-82.06-6.64,21.04-31.63,32.88-38.43,35.75-.38,6.22-1.04,29.13,7.74,53.26Z"/>
        <path class="uuid-7f126fd8-9570-476c-830c-35946e31a0e7" d="m1164.63,1879.3c80.59,15.99,126.2-42.66,159.51-85.48,9.43-12.13,17.58-22.6,25.43-30.07,14.29-13.6,29.43-22.9,42.79-31.11,19.52-11.99,33.63-20.66,32.69-35.23-1.58-24.48-24.44-29.49-24.67-29.54l-4.12-.85,2.38-3.47c17.94-26.08,12.14-39.22-2.07-50.94-11.21-9.21-56.5-.21-73.01,4.04l-12.85,3.31,10.43-8.21c46.7-36.75,106.99-73.63,151.02-100.56,17.54-10.73,32.69-20,43.51-27.13,14.97-9.86,21.39-22.26,17.63-34.01-3.38-10.57-14.61-18.55-25.52-18.12-12.53.46-97.62,48.29-227.63,127.94-14.03,8.61-22.62,13.93-22.62,13.93l-2.94-4.75s7.4-4.59,19.69-12.14c-5.35-5.9-7.25-10.2-7.34-10.4l-.37-.84.21-.9c17.17-74.03,44.34-220.68,24.3-245.91-1.71-2.15-3.6-3.15-5.96-3.15-21.36,0-26.23,17.47-38,59.69-9.82,35.22-24.65,88.45-58.37,161.23-69.45,149.85-124.81,228.95-131.13,237.79.36,4.97,2.66,28.92,15.04,54.55,18.46,38.21,49.4,61.87,91.95,70.31Zm167.77-130.87c-.13-4.01-.11-7.78-.62-11.34-.97-11.63-9.76-18-20.2-21.62,19.9-3.58,31.08,16.55,20.82,32.97Zm-32.97-61.6c-1-3.59-1.43-7-2.78-10.39-3.18-10.07-11.99-15.99-21.52-19.97,17.37-2.91,30.89,13.95,24.29,30.37Zm-94.46-62.08c6.06-6.71,13.49-13,22.45-15.14-20.8,13.74-30.97,37.74-39.62,60.22-1.18,3.35-2.34,6.71-3.76,10.06.2-3.6.66-7.17,1.11-10.76,2.83-16.06,9.07-31.9,19.82-44.38Zm-19.05-37.98c-.13,2.81-.67,5.54-1.88,8.09-.62-1.33-.98-2.61-1.36-3.87-2.6-8.35-4.55-16.45-10.78-23.03,9.11.29,14.33,10.65,14.02,18.81Z"/>
        <path class="uuid-7f126fd8-9570-476c-830c-35946e31a0e7" d="m1400.12,1608.31c.55.46,1.1.92,1.64,1.39,16.26-20.65-4.01-41.85-6.09-43.93-20.9,13.7-41.85,28.1-60.97,42.59,19.17-4.03,53.83-9.57,65.42-.05Z"/>
        <path class="uuid-7f126fd8-9570-476c-830c-35946e31a0e7" d="m1180.49,2200.85c1.79,35.24,4.14,73.3,7.21,113.9l-5.57.42c-16.86-223.16-12.11-370.13-11.37-389.45-1.24.06-2.51.09-3.81.09-8.28,0-17.75-1.15-28.67-3.76-58.47-14-98.79-80.91-109.26-113.06-9.56,22.83-39.13,96.09-64.28,186.45-27.93,100.37-55.96,242.96-30.88,352.29,15.1,65.85,45.22,102.3,87.1,105.4,72.78,5.38,172.18-92.59,221.67-218.53-25.09-18.94-52.69-30.22-62.14-33.77Z"/>
        <path class="uuid-b5360494-4bb9-435f-b731-6b9b12533d2a" d="m2503.82,1886.56c-55.47-175.96-173.17-342.9-233.33-391.03-58.28-46.63-170.95-61.86-203.22-61.86-27.26,0-52.67-11.22-61.92-15.81-6.16,45.89-30.72,85.46-73.07,117.66-73.65,56-183.76,76.87-261.02,76.87-18.78,0-35.61-1.23-49.52-3.49-56.46-9.18-80.06-43.56-89.91-70.78-8.27-22.85-8.49-44.13-8.13-52.95-1.52,1.19-3.15,2.39-4.95,3.57-10.9,7.18-26.08,16.47-43.67,27.23-22.05,13.49-48.2,29.5-74.65,46.71,4.68,5.13,23.64,28.41,5.42,50.89,10.06,10.51,15.42,25.13-.51,50.03,7.57,2.81,23.87,11.4,25.3,33.47,1.15,17.93-14.95,27.82-35.34,40.35-13.12,8.06-28,17.2-41.86,30.4-7.55,7.18-15.57,17.5-24.87,29.45-23.99,30.83-54.21,69.63-99.07,84.33l.32.2c-1,1.6-2.01,3.28-3.05,5-9.26,15.41-21.06,35.03-50.39,38.5-.51,12.99-3.94,112.28,3.83,269.51,9.69,3.41,67.1,24.98,97.21,66.49,7.48,10.32,11.85,19.7,13.09,28.08,3.15-9.2,5.81-24.32,2.71-46.88-3.76-27.41,6.61-48.57,15.77-67.23,5.82-11.87,11.32-23.07,11.98-33.96.8-13.15,4.93-18.9,10.16-26.18,6.85-9.54,16.24-22.61,25.49-61.06,16.09-66.9-39.24-209.46-39.8-210.89l5.2-2.04c2.31,5.9,56.32,145.11,40.11,213.85.17,7.36,4.16,147.16,50.95,237.26h859.28l-2.71-22.24c-44.81-28.04-45.35-66.37-45.8-100.22-.25-18.88-.49-36.72-8.64-50.29-12.54-20.89-12.77-23.6-11.65-29.75.76-4.17,1.91-10.48-4.27-33.43-7.34-27.27-6.91-33.64-6.06-46.31.73-10.79,1.83-27.1-1.83-67.38-15.04-165.44-8.45-307.61,19.59-422.57l5.43,1.32c-17.99,73.77-27.09,158.89-27.27,254.24,17.42-42.5,60.49-154.95,66.67-241.44l5.57.4c-7,97.88-60.64,228.3-72.2,255.45.36,48.19,2.94,98.92,7.77,152.08,3.7,40.72,2.58,57.29,1.84,68.26-.84,12.44-1.22,18.11,5.88,44.49,6.51,24.16,5.22,31.21,4.37,35.88-.78,4.27-1.07,5.86,10.94,25.88,8.92,14.87,9.17,33.44,9.43,53.09.46,34.3.93,69.78,44.29,96.27,42.36,25.89,110.39-2.9,170.41-28.3,37.28-15.77,72.49-30.67,97.52-30.67,53.93,0,71.51-12.54,75.14-15.77-7.24-54.46-22.47-86.36-43.49-130.38-19.03-39.85-42.71-89.44-69.45-174.27Z"/>
        <path class="uuid-24d0b890-fa44-4e65-8167-bdcb04d1ed70" d="m1247.21,2238.18c-12.37,31.18-27.95,61.16-45.84,88.59,45.34.53,73.51-7.3,81.53-22.63,5.2-9.94,1.83-23.26-10.02-39.59-7.2-9.93-16.16-18.71-25.68-26.36Z"/>
        <path class="uuid-87577677-ec49-4c38-a46b-1846a0290f9c" d="m1481.01,1117.27c8.15,1.19,15.84-3.55,18.29-11.27l.15-.46c.67-2.2.14-3.78-1.72-5.14-2.82-2.06-8-3.16-14.58-3.16-14.35,0-35.3,5.26-52.71,17.31-20.49,14.19-25.67,28.12-26.84,35.9,34.62-33.46,63.15-35.25,77.42-33.17Z"/>
        <path class="uuid-87577677-ec49-4c38-a46b-1846a0290f9c" d="m1578,1442.75c24.43,14.27,65.58,8.43,110.09-15.63,38.2-20.65,32.19-57.64,27.84-72.59-6.76-23.21-21.15-39.35-27.62-38.86-8.13.58-12.62,9.84-17.37,19.63-4.59,9.46-9.33,19.24-18.15,23.09-13.17,5.74-17.98-2.15-21.86-8.49-2-3.28-4.08-6.67-7.2-8.62-3-1.88-7.88-1.92-14.1-.12-7.38,2.14-12.71,8.74-13.27,16.43-.72,10.01-4.22,22.89-11.72,26.27-2.42,1.09-6.3,1.64-11.02-1.96-4.88-3.73-9.75-6.38-14.47-7.89-.69-.22-1.4-.33-2.1-.33-1.45,0-2.86.47-4.07,1.37-1.8,1.34-2.8,3.38-2.76,5.62.55,30.74,9.89,51.63,27.78,62.08Z"/>
        <path class="uuid-87577677-ec49-4c38-a46b-1846a0290f9c" d="m1580.57,1291.84l.98-2.32,2.41.73c.67.21,65.89,19.71,109.34.05-9.22-7.63-38.35-28.9-76.18-28.9-13.66,0-28.46,2.78-43.86,9.97l-.34.13c-.5.16-48.94,16.15-54.33,63.28,12.16-3.37,50.54-15.93,61.97-42.95Z"/>
        <path class="uuid-7f126fd8-9570-476c-830c-35946e31a0e7" d="m1797.28,1229.09c-13.01-97.18-47.23-218.5-136.13-250.18,1.34,2.18,2.42,4.51,3.2,6.94,3.91,12.32-.17,25.69-11.51,37.66-20.59,21.73-48.39,19.57-57.17,18.21-.76,2.55-2.33,6.53-5.49,11.1,13.39-4.39,29.12-6.93,44.76-6.03,46.82,2.66,56.71,28.08,57.12,29.16l1.84,5.01-5.18-1.34c-14.93-3.91-27.96-5.7-39.3-6.05,25.38,7.78,43.88,31.41,43.88,59.3,0,34.2-27.81,62.02-62,62.02-14.37,0-27.61-4.93-38.13-13.16,6.76,10.46,12.53,20.8,16.31,29.43,6.89,15.71,7.91,26.36,3.05,31.63-13.61,14.73-29.99,8.42-36.23,5.14-1.82,6.13-4.93,10.15-9.29,11.99-1.81.76-3.7,1.08-5.62,1.08-2.64,0-5.29-.61-7.78-1.51-.89,1.62-2.55,3.76-5.47,5.34-2.44,1.3-5.27,1.97-8.45,1.97s-6.4-.6-10.11-1.79c-8.55-2.76-12.18-22.92-12.94-46.06-11.69,14.39-29.1,22.77-48.01,22.77-10.46,0-20.33-2.63-28.99-7.22,6.74,23.12,37.33,115.97,109.01,176.18-2.44-8.75-3.8-18.71-4-29.9-.07-4.06,1.77-7.76,5.03-10.2,3.26-2.42,7.34-3.11,11.21-1.86,5.32,1.69,10.76,4.65,16.16,8.77,3.05,2.33,4.77,1.56,5.32,1.3,4.06-1.82,7.69-11.11,8.45-21.58.73-10.02,7.67-18.62,17.28-21.39,7.89-2.29,14.17-2.05,18.62.74,4.24,2.64,6.78,6.78,9.01,10.44,3.97,6.48,6.16,10.07,14.86,6.27,6.93-3.02,11.21-11.86,15.36-20.4,5.23-10.8,10.65-21.95,21.99-22.77.2-.02.39-.02.6-.02,10.69,0,26.16,20.11,32.79,42.9,2.29,7.88,4.99,21.39,2.42,35.78,7.56-5.16,24.52-17.91,40.31-38.07,19.29-24.63,40.72-65.72,33.25-121.59Z"/>
        <circle class="uuid-2bdbe35b-7c26-4e0e-b985-6d00ee6e094f" cx="1651.86" cy="1115.72" r="22.18"/>
        <circle class="uuid-2bdbe35b-7c26-4e0e-b985-6d00ee6e094f" cx="1448.67" cy="1199.05" r="22.18"/>
        <circle class="uuid-046f35ff-0e8f-4eb8-865a-94fdf7e9a66e" cx="1448.67" cy="1199.05" r="8.38"/>
        <circle class="uuid-046f35ff-0e8f-4eb8-865a-94fdf7e9a66e" cx="1651.86" cy="1115.72" r="8.38"/>
        <path class="uuid-4acdbe55-9b3f-405e-ab95-903be46c9cf9" d="m1655.57,1186s22.63-75.73-42.03-109.8c0,0,57.37-11.89,73.48,35.68,16.11,47.58-31.44,74.12-31.44,74.12Z"/>
        <path class="uuid-4acdbe55-9b3f-405e-ab95-903be46c9cf9" d="m1518.81,1208.78c-10.07,15.42-24.63,23.77-25.32,24.17.26-.95,22.21-75.94-42.06-109.79,0,0,56.11-11.64,72.93,34.13-2.61,14.37-5.9,35.86-5.55,51.5Z"/>
        <path class="uuid-4acdbe55-9b3f-405e-ab95-903be46c9cf9" d="m1534.61,1131.05s37.18,66.53,29.68,126.87c0,0,7.18-2.94,10.76-13.7,0,0,30.98,14.68,36.53-11.42,5.54-26.09-67.19-124.59-76.97-101.76Z"/>
        <path class="uuid-4acdbe55-9b3f-405e-ab95-903be46c9cf9" d="m1609.21,1339.21s35.22,58.71,41.34,103.47l11.99-2.94,31.31-15.41,19.57-18.35,9.54-27.15-6.6-33.02-10.27-22.5-17.61-13.45-12.96,6.6-5.14,16.39-8.56,14.43-18.1,8.56-8.07-3.91-12.23-17.12h-9.3l-4.89,4.4Z"/>
        <path class="uuid-4acdbe55-9b3f-405e-ab95-903be46c9cf9" d="m1599.43,1056.2s11.09,4.76,14.11,19.99c0,0,39.95-11.68,72.49.55l-3.18-9.78-13.21-9.3-22.26-7.58-17.12-1.22-22.26,1.22-8.56,6.12Z"/>
        <path class="uuid-4acdbe55-9b3f-405e-ab95-903be46c9cf9" d="m1443.37,1105.86s12.72,2.69,10.76,15.9l23.73-.73h10.52l11.5-7.58,2.94-8.32-3.91-8.32-6.36-.49-20.3-1.47-12.23,2.94-16.63,8.07Z"/>
        <path class="uuid-4acdbe55-9b3f-405e-ab95-903be46c9cf9" d="m1656.26,1445.46s73.71-.65,117.41-48.92c43.7-48.27,37.18-136.98,37.18-136.98l-5.22-35.88-4.57-2.61-.65,41.75s-2.61,80.88-79.58,127.2c0,0-3.59,34.25-64.58,55.45Z"/>
        <path class="uuid-4acdbe55-9b3f-405e-ab95-903be46c9cf9" d="m1572.28,1446.11s91.97,45.01,220.15-10.27c128.18-55.28,66.05,105.18-62.62,117.9,0,0,97.84-6.36,153.62-41.58,55.77-35.22,68.49-74.85,67.02-96.38l-32.78-6.36-39.63-10.76-33.76-20.06-12.72-35.22-13.7-55.28-11.25-66.53h-7.34s22.5,103.72-77.79,171.23c0,0-8.15,19.69-29.84,34.73-24.95,17.31-67.82,34.29-119.37,18.59Z"/>
        <path class="uuid-4acdbe55-9b3f-405e-ab95-903be46c9cf9" d="m1502.32,1099.74s37.67-9.78,42.56,28.37l29.84,28.86s-10.27-38.16,10.27-60.66l5.38-7.34-12.23,4.4h-10.27l-8.81-6.85-1.47-7.83,1.47-3.42-18.59,3.42-15.17.49-20.06-16.63-8.32,17.61-12.23,8.32-18.59,2.45-12.23-11.74-20.55,27.4,17.61-4.89,24.95-6.36,16.63.98,9.78,3.42Z"/>
        <path class="uuid-4acdbe55-9b3f-405e-ab95-903be46c9cf9" d="m1585.81,1248.46s6.52,5.22,5.22,12.39c0,0,61.97-15.66,106,29.68,0,0-27.72,19.9-90.34,7.5,0,0,43.05,15,33.27,58.05h13.05l9.13-9.78,15.66-24.79,5.22-5.87,13.05-1.3,10.03,11.17,10.27,22.5s7.75,19.81,5.79,37.43l-1.3,4.57s60.01-24.79,77.62-107.63c17.61-82.84-50.23-229.61-50.23-229.61,0,0-37.18-67.19-91.32-77.62,0,0,6.52,7.83,6.52,19.57s-13.05,31.31-28.05,38.49c-15,7.18-41.75,5.87-41.75,5.87l-11.74,21.53s69.8-27.4,106.98,15c0,0-46.97-15-69.8-1.3,0,0,47.62-7.18,64.58,33.92,16.96,41.09-9.78,73.71-30.66,78.93-20.87,5.22-42.4,11.09-67.19-14.35l20.22,37.83,7.18,25.44-5.22,8.48-10.44,5.22-11.74-1.3Z"/>
        <path class="uuid-4acdbe55-9b3f-405e-ab95-903be46c9cf9" d="m1657.57,1012.33s53.49,26.74,67.84,91.97c14.35,65.23-28.05,98.5-87.41,105.02,0,0,22.18,41.09,72.4,31.96,50.23-9.13,48.92,84.15,12.39,113.5l-2.61,3.91-1.3,36.53,30.66-22.18,31.96-41.75,16.31-44.36,4.57-31.96-3.91-48.92-18.26-72.4-24.13-61.97-28.7-44.36-27.4-30.01-31.96-16.96-11.09-5.22s10.44,20.22.65,37.18Z"/>
        <path class="uuid-4acdbe55-9b3f-405e-ab95-903be46c9cf9" d="m1835.97,1133.33s-30.82-40.93-34.25-.33c0,0,66.05,3.91,8.32,69.96,0,0,20.55,18.59,36.2-16.14,0,0,2.12,60.66-45.17,34.25l-4.24-4.89s-5.87-58.22-20.55-98.33c0,0,14.68-59.2,41.09-59.69s23.97,58.54,18.59,75.18Z"/>
        <path class="uuid-4acdbe55-9b3f-405e-ab95-903be46c9cf9" d="m1838.58,1116.05s-18.59-50.23-38.49,3.59l1.63,13.37s11.09,6.2,13.05,15c1.96,8.81,3.91,21.53-13.7,32.29,0,0-6.52-62.29,5.22-92.3,11.74-30.01,39.46-12.07,32.29,28.05Z"/>
        <path class="uuid-4acdbe55-9b3f-405e-ab95-903be46c9cf9" d="m1414.26,1004.34s54.79-32.78,74.85,7.83c0,0,27.4-32.29,55.28.98,0,0,25.44-20.06,37.67-8.81,12.23,11.25-12.72,47.94-40.12,34.73,0,0-6.85,31.8-37.18,15.66,0,0,3.91,22.5,26.91,23.97,22.99,1.47,50.39-16.63,55.77-25.44,5.38-8.81,6.2-14.19,6.2-14.19,0,0,41.75,6.36,62.29-23.48,20.55-29.84-9.78-74.85-88.55-49.41,0,0-55.77-43.54-90.51,16.63,0,0-51.86-22.5-62.62,21.53Z"/>
        <path class="uuid-4acdbe55-9b3f-405e-ab95-903be46c9cf9" d="m1476.88,982.82s49.9-32.78,93.93,1.96c0,0,36.69-18.1,60.17,4.89,23.48,22.99-37.34,49.41-37.34,49.41,0,0,35.88,6.36,59.85-18.1,23.97-24.46.98-83.17-83.66-53.33,0,0-58.22-45.01-92.95,15.17Z"/>
        <path class="uuid-4acdbe55-9b3f-405e-ab95-903be46c9cf9" d="m1444.59,975.97s45.99-47.45,164.38-42.07c0,0,16.14,11.74,51.86-3.42l.49,12.23s64.09,13.21,81.21,2.45l-1.96,25.44s-56.75,2.94-98.82-11.25l-20.55,1.96-11.25-1.47s-19.57-4.89-42.56,6.36c0,0-52.84-42.56-90.51,16.63l-32.29-6.85Z"/>
        <path class="uuid-4acdbe55-9b3f-405e-ab95-903be46c9cf9" d="m1454.86,875.68s33.76-4.89,43.05,20.55c0,0,34.73-4.89,31.8,30.82l57.24-8.81s11.74-31.8-4.89-47.94c-16.63-16.14-39.63-7.34-39.63-7.34,0,0-35.71-36.2-62.13,8.32,0,0-9.78-6.85-25.44,4.4Z"/>
        <path class="uuid-4acdbe55-9b3f-405e-ab95-903be46c9cf9" d="m1499.87,852.68s28.86,6.36,33.76,32.78c0,0,47.94-1.96,50.88,31.31,0,0,33.27-58.71-42.07-53.81,0,0-17.12-24.95-42.56-10.27Z"/>
        <path class="uuid-4acdbe55-9b3f-405e-ab95-903be46c9cf9" d="m1588.42,1093.38s62.13,20.06,34.73,98.33c0,0,59.2,2.94,67.51-52.35,8.32-55.28-67.02-92.46-102.25-45.99Z"/>
        <path class="uuid-4acdbe55-9b3f-405e-ab95-903be46c9cf9" d="m1427.47,1138.88s50.88,28.37,32.78,98.33c0,0,38.65,8.32,58.22-24.46,0,0,.98-46.97,4.4-58.71,0,0-41.09-60.66-95.4-15.17Z"/>
        <path class="uuid-4acdbe55-9b3f-405e-ab95-903be46c9cf9" d="m1770.41,1550.8s20.55,11.74,7.83,46.97c0,0,138.94,16.63,152.64,210.37,13.7,193.73-7.83,234.83,48.92,303.32,56.75,68.49,52.84,185.9,52.84,185.9l244.61-1.96-4.89-23.48s-40.12-22.5-42.07-65.56c-1.96-43.05-4.89-86.1-22.5-107.63l-.98-27.4-11.74-43.05,2.94-53.81s-12.72-140.9-12.07-187.86c0,0,.65-185.25,25.44-261.57,0,0-6.52,105.02,5.22,184.6,0,0,41.09-122.63,42.4-173.51,0,0,36.37,78.76,15.82,184.44-20.55,105.67,42.56,181.99,74.85,198.14,32.29,16.14,117.41,201.07,73.38,330.23l87.08-34.41,24.13-3.91,24.79-.65,24.13-3.91,36.53-13.05s-16.31-93.28-35.22-116.76c-18.92-23.48-63.93-146.77-63.93-146.77l-37.83-112.19-39.79-83.49s-112.85-228.3-218.52-268.09c-105.67-39.79-179.38-37.18-179.38-37.18l-39.14-11.74-19.57-7.83s-29.35-4.57-35.22,3.26c0,0,13.05,107.63-180.69,138.61Z"/>
        <path class="uuid-4acdbe55-9b3f-405e-ab95-903be46c9cf9" d="m1527.76,1440.24s-105.02,105.02-271.36,170.25c0,0-5.22,67.84-65.88,98.5-60.66,30.66-107.63,100.45-86.1,142.85,0,0,42.4,43.05,121.33,29.35,0,0,54.14-18.92,103.06-89.36,48.92-70.45,81.54-45.66,97.84-91.32,0,0,3.91-33.27-26.09-34.57,0,0,26.74-31.31,1.96-51.53,0,0,18.92-26.09-3.91-50.88l46.31-32.61,75.67-47.62s31.31-23.48,7.18-43.05Z"/>
        <path class="uuid-4acdbe55-9b3f-405e-ab95-903be46c9cf9" d="m1325.47,1611.22l71.43-48.43s25.19,29.35,5.87,50.63c0,0-25.68-18.59-78.03,1.96l.73-4.16Z"/>
        <path class="uuid-4acdbe55-9b3f-405e-ab95-903be46c9cf9" d="m1156.44,1881.03s-33.27-102.25,59.2-104.2c92.46-1.96,121.82-23.97,118.88-41.09-2.94-17.12-37.67-18.59-37.18-36.2.49-17.61,10.27-35.22-20.55-42.56,0,0,93.44,16.14,125.24-39.14,0,0,23.97,9.13-1.47,48.11,0,0,22.5,5.22,27.89,28.7,5.38,23.48-44.03,46.97-44.03,46.97l-27.89,18.59-27.72,31.64-36.85,45.66-31.31,26.91-30.33,13.7-25.44,7.34-48.43-4.4Z"/>
        <path class="uuid-4acdbe55-9b3f-405e-ab95-903be46c9cf9" d="m1103.11,1854.61s9.78,22.5-7.83,41.58c0,0,33.76,32.78,77.3,25.93,43.54-6.85,53.16-40.93,53.16-40.93,0,0-53.16,21.85-122.63-26.58Z"/>
        <path class="uuid-4acdbe55-9b3f-405e-ab95-903be46c9cf9" d="m1156.44,1881.03s8.32,22.5-7.34,39.63c0,0,53,16.96,76.64-39.46,0,0-49.74,8.15-69.31-.16Z"/>
        <path class="uuid-4acdbe55-9b3f-405e-ab95-903be46c9cf9" d="m1095.29,1896.2s-11.74,300.38-18.59,395.29c-6.85,94.91,51.86,113.5,51.86,113.5,0,0,78.28-53.49,114.8-170.9,0,0-30.01-27.4-62.62-33.92l-3.26-3.26s-9.13-238.09-3.91-272.01c0,0-46.97,3.26-78.28-28.7Z"/>
        <path class="uuid-4acdbe55-9b3f-405e-ab95-903be46c9cf9" d="m1149.1,1920.66s-26.42,232.87-13.7,316.04c12.72,83.17,22.5,80.23,52.84,78.28,35.54-2.29,17.61-106.65,17.61-106.65l-28.37-11.42s-12.39-166.34-3.91-272.01l-24.46-4.24Z"/>
        <path class="uuid-4acdbe55-9b3f-405e-ab95-903be46c9cf9" d="m1859.13,1523.73s35.88-3.91,37.18,31.31c0,0,164.22,30.49,155.41,127.36-8.81,96.87-88.06,164.38-10.27,193.73,77.79,29.35,189.33,115.95,102.74,123.28s-180.52,35.22-151.17,54.3c29.35,19.08,186.39-2.94,190.8,58.71,4.4,61.64-24.46,153.13,93.44,182.97l-6.52-28.7s-27.4-15-39.14-50.23c-11.74-35.22,5.87-62.62-23.81-117.74l-1.3-7.18.65-13.7-12.07-49.57,2.61-41.42-8.48-101.43-3.91-89.04,1.3-74.04s4.08-105.51,26.58-197.97c0,0,30.33,48.43,18.1,140.41,0,0,26.58-80.72,27.72-128.67,0,0,111.22,113.5,104.37,174.16-6.85,60.66-32.29,104.69,27.4,128.18,59.69,23.48,160.46,181.01,102.74,176.12-57.73-4.89,48.92,194.71,48.92,194.71,0,0,51.37,1.63,77.3-16.31,0,0-8.32-62.46-37.18-115.78-28.86-53.33-52.35-123.77-52.35-123.77l-32.78-92.95-27.4-69.47-48.43-98.33-39.14-64.09-52.84-74.36-35.22-41.58s-56.75-76.32-251.46-83.17l-39.63-16.14-22.99-6.36h-18.59l-10.6,5.22s6.52,70.28-91.97,111.54Z"/>
        <path class="uuid-4acdbe55-9b3f-405e-ab95-903be46c9cf9" d="m1320.33,1845.32s1.96,118.39-26.42,158.51c-28.37,40.12-111.54,29.35-116.43,150.68,0,0,1.47,36.2,1.47,45.01,0,0,104.2,32.78,108.61,93.44l2.45,3.91,7.83-27.4-1.47-22.5-.49-27.4,8.81-29.84,19.08-37.18v-21.53l16.14-23.97,17.61-40.61,5.87-41.09-2.94-44.52-13.21-56.75-26.91-78.76Z"/>
        <path class="uuid-4acdbe55-9b3f-405e-ab95-903be46c9cf9" d="m1352.94,1963.38s-44.36,92.63-90.67,112.85c-46.31,20.22-9.13,58.05,3.91,84.8,13.05,26.74-85.45,34.57-85.45,34.57,0,0,101.11,45.66,105.67,99.8l3.59,1.47s9.46-21.04,9.46-36.69-3.59-40.61-3.59-40.61l6.85-25.28,21.04-41.75v-21.53l18.75-27.4,15-37.18,5.87-41.09-7.83-61.97h-2.61Z"/>
        <path class="uuid-cc356d36-9b50-4de2-bdad-16dbe9911b52" d="m1410.14,1761.61c-28.56,25.77-36.43,67.26-19.87,101.98,14.91,31.27,32.34,81.42,28.88,140.23-5.87,99.8,23.48,228.96,58.71,245.1,35.22,16.14,362.51,54.3,362.51-51.37s-96.87-159.98-70.45-289.13c26.42-129.15-30.82-248.04-111.54-253.91-57.93-4.21-183.9,49.03-248.24,107.09Z"/>
        <path class="uuid-cc356d36-9b50-4de2-bdad-16dbe9911b52" d="m1042.38,1888.62c-7.37-13.86-27.82-11.85-32.34,3.19-23.53,78.37-73.7,265.42-53.21,374.73,26.42,140.9,80.72,154.11,102.74,136.49,22.02-17.61-11.74-88.06-8.81-161.44,2.94-73.38,11.74-221.62,13.21-275.92.75-27.88-10.48-56.14-21.6-77.05Z"/>
        <path class="uuid-cc356d36-9b50-4de2-bdad-16dbe9911b52" d="m1468.38,1804.83c-18.89,16.31-25.06,42.71-15.86,65.91,5.84,14.72,10.66,36.55,10.66,68.51,0,80.72-42.56,181.99,33.76,224.55,76.32,42.56,259.78,39.63,239.23-30.82-20.55-70.45-113.01-110.08-79.25-184.93,31.03-68.81-55.76-257.91-188.54-143.23Z"/>
        <path class="uuid-cc356d36-9b50-4de2-bdad-16dbe9911b52" d="m1012.61,1955.88s-57.24,224.55-29.35,311.15c27.89,86.59,32.29-76.32,45.5-124.75,13.21-48.43,13.21-248.04-16.14-186.39Z"/>
        <path class="uuid-cc356d36-9b50-4de2-bdad-16dbe9911b52" d="m1614.43,1522.24c-19.04-12.32-11.05-44.51,11.04-44.74,45.45-.46,120.08-4.39,169.7-23.37,75.61-28.93,7.67,104.86-104.1,91.6-37-4.39-61.04-13.4-76.63-23.5Z"/>
        <path class="uuid-cc356d36-9b50-4de2-bdad-16dbe9911b52" d="m1653.41,1511.86c-9.83-4.2-8.25-18.61,2.26-20.57,46.06-8.6,129.86-22.8,128.44-11.91-1.75,13.43-55.76,64.49-130.7,32.48Z"/>
        <path class="uuid-cc356d36-9b50-4de2-bdad-16dbe9911b52" d="m1098.22,1736.71s41.09-108.61,69.47-134.05c28.37-25.44,74.36-4.89,70.45,17.61-3.91,22.5-81.21,75.34-97.84,95.89-16.63,20.55-41.09,42.07-42.07,20.55Z"/>
        <path class="uuid-cc356d36-9b50-4de2-bdad-16dbe9911b52" d="m1531.67,1150.62s36.2,79.74,20.55,100.78l-1.47,5.38-2.94,5.87-12.23,1.96-6.36-3.42-6.85-17.12-3.56-35.28,4.05-54.74s3.42-8.81,8.81-3.42Z"/>
        <path class="uuid-cc356d36-9b50-4de2-bdad-16dbe9911b52" d="m1458.29,1252.38s30.82-1.47,47.45-5.38c16.63-3.91-29.35,67.51-2.45,94.91,26.91,27.4,42.07,68.98,42.07,68.98,0,0-48.43-38.16-77.3-98.33-28.86-60.17-9.78-60.17-9.78-60.17Z"/>
        <path class="uuid-8805bc31-df66-4efb-a30e-9edd7140eb85" d="m1560.77,1402.59c-.85-7.43,6.01-13.47,13.25-11.6,8.54,2.21,19.4,3.09,27.13-3.1,14.68-11.74,35.22,46.48,25.93,51.86-8.45,4.89-60.6,12.62-66.3-37.16Z"/>
        <path class="uuid-8805bc31-df66-4efb-a30e-9edd7140eb85" d="m1380.01,1035.65s14.19-21.04,38.65-14.68c24.46,6.36,34.73-14.68,56.75.98,22.02,15.66,33.76-15.17,53.81.49,20.06,15.66-24.95,31.8-38.65,23.97-13.7-7.83,5.87,30.82-34.25,14.68-40.12-16.14-30.82,68.49-61.64,46.48-30.82-22.02-14.68-71.92-14.68-71.92Z"/>
        <path class="uuid-8805bc31-df66-4efb-a30e-9edd7140eb85" d="m1458.78,888.89s17.12-6.36,28.37,7.83,21.53,10.27,24.46,22.5c2.94,12.23-65.07,41.09-69.96,22.5-4.89-18.59,16.14-29.84,16.14-29.84,0,0-11.74-17.61.98-22.99Z"/>
        <path class="uuid-f100ea70-28d5-4629-9514-30751ccd08d9" d="m1631.29,1194.87c-34.19,0-62.01-27.82-62.01-62.01s27.82-62.01,62.01-62.01,62.01,27.82,62.01,62.01-27.82,62.01-62.01,62.01Zm0-118.43c-31.11,0-56.42,25.31-56.42,56.42s25.31,56.42,56.42,56.42,56.42-25.31,56.42-56.42-25.31-56.42-56.42-56.42Z"/>
        <path class="uuid-f100ea70-28d5-4629-9514-30751ccd08d9" d="m1468.62,1241.72c-34.2,0-62.02-27.81-62.02-62,0-24.98,14.86-47.4,37.86-57.14.16-.07.33-.14.51-.2,1.43-.6,2.88-1.13,4.31-1.6l.5-.16c.29-.1.58-.19.87-.27,5.74-1.75,11.81-2.65,17.96-2.65,25.27,0,47.79,15.1,57.37,38.47l-5.17,2.12c-8.72-21.26-29.21-35-52.21-35-5.6,0-11.12.82-16.41,2.43-.28.08-.48.14-.69.21l-.56.18c-1.29.42-2.6.91-3.94,1.47l-.31.11c-21,8.89-34.52,29.3-34.52,52.03,0,31.11,25.32,56.41,56.43,56.41,19.88,0,37.92-10.15,48.25-27.16l4.77,2.9c-11.36,18.69-31.18,29.85-53.03,29.85Z"/>
        <path class="uuid-f100ea70-28d5-4629-9514-30751ccd08d9" d="m1561.39,1260.99c-9.79,0-19.89-8.45-20.4-8.88l3.61-4.26c3.4,2.87,13.65,9.7,20.25,6.9,5.51-2.34,7.23-11.06,7.7-17.97l5.57.38c-.83,12.33-4.57,19.98-11.1,22.74-1.81.77-3.71,1.09-5.63,1.09Z"/>
        <path class="uuid-f100ea70-28d5-4629-9514-30751ccd08d9" d="m1539.68,1266.79c-3.04,0-6.41-.59-10.1-1.78-15.98-5.14-14.8-71.1-9.71-103.55,3.81-24.28,9.77-36.6,17.73-36.6,17.26,0,58.02,54.59,71.89,86.27,6.88,15.72,7.91,26.36,3.04,31.63-17.08,18.5-38.58,3.8-38.79,3.65l3.2-4.58c.72.5,17.75,12.03,31.49-2.86,1.46-1.58,3.99-7.24-4.05-25.6-14.93-34.1-54.25-82.93-66.77-82.93-2.68,0-8.26,6.71-12.21,31.88-6.88,43.88-2.42,94.69,5.91,97.36,5.91,1.9,10.78,1.99,14.08.27,3.01-1.57,3.83-4.14,3.86-4.25l5.37,1.53c-.14.49-1.48,4.89-6.47,7.58-2.43,1.31-5.25,1.96-8.44,1.96Z"/>
        <path class="uuid-f100ea70-28d5-4629-9514-30751ccd08d9" d="m1574.18,1096.34c-5.81,0-11.6-2.03-16.27-6.08l-.47-.41c-3.91-3.46-4.96-8.03-2.96-12.86,6.35-15.4,43.63-32.3,80.45-30.19,46.84,2.68,56.72,28.07,57.12,29.15l1.85,5.02-5.17-1.35c-56.47-14.74-85.84.46-98.32,10.82-4.74,3.94-10.5,5.91-16.22,5.91Zm54.47-44.15c-33.44,0-64.37,15.66-69.01,26.92-1.09,2.65-.63,4.67,1.5,6.55l.43.38c7.19,6.24,17.82,6.29,25.26.1,12.8-10.64,42.1-26.09,96.8-13.53-5.36-6.97-18.71-18.51-49.03-20.25-1.99-.11-3.98-.17-5.96-.17Z"/>
        <path class="uuid-f100ea70-28d5-4629-9514-30751ccd08d9" d="m1399.01,1163.08l-1.04-5.24c-.2-.99-4.42-24.53,29.29-47.88,26.45-18.32,61.98-22.68,73.77-14.07,3.81,2.78,5.14,6.79,3.77,11.28l-.17.53c-3.28,10.33-13.54,16.68-24.41,15.1-13.88-2.02-42.41.02-77.49,36.43l-3.71,3.85Zm84.14-65.85c-14.35,0-35.3,5.26-52.71,17.31-20.49,14.19-25.67,28.12-26.84,35.9,34.62-33.46,63.15-35.25,77.42-33.17,8.15,1.19,15.84-3.55,18.29-11.27l.15-.46c.67-2.2.14-3.78-1.72-5.14-2.82-2.06-8-3.16-14.58-3.16Z"/>
        <path class="uuid-f100ea70-28d5-4629-9514-30751ccd08d9" d="m1610.29,1455.96c-13.55,0-25.48-2.76-35.11-8.38-19.69-11.5-29.96-33.98-30.55-66.8-.07-4.06,1.76-7.77,5.02-10.2s7.35-3.11,11.21-1.87c5.33,1.7,10.77,4.66,16.16,8.77,3.06,2.33,4.77,1.56,5.33,1.31,4.06-1.83,7.69-11.11,8.44-21.58h0c.72-10.01,7.67-18.61,17.28-21.4,7.89-2.29,14.16-2.04,18.62.75,4.24,2.65,6.77,6.79,9.01,10.45,3.97,6.49,6.16,10.08,14.86,6.28,6.93-3.02,11.22-11.86,15.36-20.4,5.23-10.8,10.65-21.96,22-22.77.19-.01.39-.02.59-.02,10.7,0,26.15,20.11,32.79,42.89,4.73,16.25,11.23,56.48-30.55,79.06-29.21,15.79-57.21,23.92-80.46,23.92Zm-53.23-82.27c-1.45,0-2.86.47-4.07,1.37-1.8,1.34-2.8,3.38-2.76,5.62.55,30.74,9.89,51.63,27.78,62.08,24.43,14.27,65.58,8.43,110.09-15.63,38.2-20.65,32.19-57.64,27.84-72.59-6.76-23.21-21.15-39.35-27.62-38.86-8.13.58-12.62,9.84-17.37,19.63-4.59,9.46-9.33,19.24-18.15,23.09-13.17,5.74-17.98-2.15-21.86-8.49-2-3.28-4.08-6.67-7.2-8.62-3-1.88-7.88-1.92-14.1-.12-7.38,2.14-12.71,8.74-13.27,16.43-.72,10.01-4.22,22.89-11.72,26.27-2.42,1.09-6.3,1.64-11.02-1.96-4.88-3.73-9.75-6.38-14.47-7.89-.69-.22-1.4-.33-2.1-.33Z"/>
        <path class="uuid-f100ea70-28d5-4629-9514-30751ccd08d9" d="m1552.14,1420.72c-88.88-69.42-119.13-189.04-119.42-190.24l5.43-1.33c.29,1.18,30.11,118.97,117.43,187.17l-3.44,4.4Z"/>
        <path class="uuid-f100ea70-28d5-4629-9514-30751ccd08d9" d="m1722.5,1396.2l-2.82-4.82c.23-.14,23.35-13.87,44.35-40.69,19.29-24.63,40.72-65.73,33.24-121.59-13.26-99.02-48.51-223.11-141.22-251.91l1.66-5.33c95.52,29.67,131.62,155.87,145.09,256.5,7.75,57.88-14.49,100.44-34.52,125.94-21.66,27.59-44.82,41.33-45.79,41.9Z"/>
        <path class="uuid-f100ea70-28d5-4629-9514-30751ccd08d9" d="m1821.78,1231.06c-7.39,0-15.85-3.59-25.27-10.74l3.38-4.45c11.63,8.83,21.16,11.59,28.35,8.19,15.29-7.22,16.72-39.37,16.73-39.69l.03-.85.5-.69c21.55-29.53-2.71-48.26-3.76-49.04l-2.04-1.53,1.34-2.17c.14-.23,14.03-23.11,8.65-43.61-2.5-9.54-8.87-17.2-18.91-22.76-7.53-4.16-14.28-4.72-20.65-1.69-21.77,10.33-30.69,58.26-30.78,58.74l-5.49-.99c.38-2.09,9.52-51.23,33.87-62.79,8-3.8,16.66-3.17,25.75,1.85,11.44,6.33,18.71,15.16,21.61,26.25,5.04,19.27-4.62,39.44-8.13,45.87,6.09,5.74,23.72,26.1,3.52,54.48-.34,5.61-2.94,35.67-19.88,43.67-2.75,1.3-5.7,1.95-8.84,1.95Z"/>
        <path class="uuid-f100ea70-28d5-4629-9514-30751ccd08d9" d="m1838.22,1116.81c.11-12.08.32-25.73-6.8-35.93-3.44-4.68-9.57-5.7-14.72-3.74-5.1,2.28-7.76,8.25-9.55,13.46-6.93,23.75-5.79,49.94-4.89,74.6-.55,14.98-.02,40.9,19.48,42.71-20.9.7-24.06-28.05-23.9-42.31-1.87-19.17-2.38-38.48.05-57.63,1.99-14.85,7.48-40.57,27.85-35.5,16.55,5.28,14.68,30.69,12.49,44.34h0Z"/>
        <path class="uuid-f100ea70-28d5-4629-9514-30751ccd08d9" d="m1800.91,1180.15c21.19-17.28,16.79-32.74-3.89-47.49,2.89-15.37,15.82-36.99,29.92-16.72-15.28-14.11-21.09,2.9-24.25,16.17,0,0-1.05-2.74-1.05-2.74,8.61,6.13,17.59,14.96,17.94,26.33.13,11.49-9.04,20.21-18.66,24.44h0Z"/>
        <path class="uuid-f100ea70-28d5-4629-9514-30751ccd08d9" d="m1828.67,1144.57c10.51,14.44,7.2,40.28-13.01,43.38,15.07-10.97,14.71-26.49,13.01-43.38h0Z"/>
        <path class="uuid-f100ea70-28d5-4629-9514-30751ccd08d9" d="m1387.61,1133.11c-6.04,0-11.1-2.25-15.05-6.7-16.17-18.19-8.07-69.02-6.47-78.02-5.89-7.42-7.64-14.6-5.2-21.37,6.6-18.3,42.78-26.51,50.53-28.08,17.55-34.75,55.21-23.07,65.09-19.27,10.05-17.35,22.94-27.69,38.35-30.75,24.64-4.9,47.64,10.34,53.61,14.72,6-2.89,27.5-11.57,58.82-5.31,19.22,3.84,32.72,13.87,37.06,27.51,3.91,12.33-.17,25.7-11.5,37.66-20.59,21.74-48.38,19.57-57.18,18.22-2.18,7.34-11.13,26.78-46.21,37.19-14.63,4.34-26.47,3.55-35.19-2.35-4.13-2.8-6.99-6.36-8.97-9.84-2.07,8.57-7.23,19.11-19.87,25.06-7.48,3.52-14.26,4-20.16,1.44-5.27-2.28-8.66-6.53-10.65-9.89-8.23,12.55-33.82,47.46-65.19,49.7-.62.04-1.22.07-1.82.07Zm63.42-153.01c-12.53,0-26.71,4.67-35.2,22.52l-.61,1.29-1.41.25c-11.53,2.08-42.57,10.59-47.67,24.75-1.85,5.14-.2,10.67,5.06,16.9l.86,1.02-.25,1.31c-.11.57-10.65,57.04,4.93,74.56,3.18,3.57,7.19,5.14,12.3,4.77,34.57-2.47,63.22-50.84,63.51-51.33l3.15-5.39,1.92,5.94c.03.08,2.84,8.39,9.91,11.44,4.36,1.87,9.58,1.41,15.52-1.39,19.87-9.35,18.05-31.7,17.93-32.96,0-.02,0-.04,0-.05l5.56-.54s0,.01,0,.03h0c.01.12,1.31,12.3,10.9,18.76,7.26,4.89,17.5,5.42,30.42,1.59,39.44-11.71,42.89-35.18,42.92-35.42l.39-3.05,3,.69c.32.08,32.6,7.12,54.61-16.12,9.87-10.42,13.5-21.83,10.23-32.13-3.7-11.64-15.66-20.29-32.83-23.72-34.22-6.84-56.41,5.42-56.63,5.55l-1.65.93-1.48-1.18c-.25-.2-25.03-19.78-50.51-14.7-14.33,2.86-26.36,13-35.74,30.13l-1.26,2.3-2.38-1.12c-.9-.42-12.29-5.63-25.51-5.63Z"/>
        <path class="uuid-f100ea70-28d5-4629-9514-30751ccd08d9" d="m1811.37,1057.72c-8.48-70.18-51.86-166.97-127.05-213.66-45.6-28.32-95.1-33.38-147.1-15.04-79.91,28.18-114.77,75.05-129.94,109.41-16.45,37.26-13.99,68.3-13.97,68.61l-5.56.49c-.12-1.31-2.63-32.55,14.3-71.08,15.58-35.46,51.36-83.79,133.31-112.7,53.68-18.93,104.79-13.7,151.9,15.56,76.75,47.66,121.01,146.28,129.65,217.74l-5.55.67Z"/>
        <path class="uuid-f100ea70-28d5-4629-9514-30751ccd08d9" d="m1672.87,1560.27c-28.77,0-52.66-3.05-68.25-9.11-13.34-5.18-20.62-12.49-21.65-21.72-5.75-51.8-16.7-87.62-16.81-87.98l5.34-1.65c.11.36,11.21,36.65,17.03,89.01.78,7,6.87,12.76,18.12,17.13,58.62,22.78,241.72-1.76,294.81-48.2,52.44-45.89,48-74.64,46.05-81.12-13.51-.99-93.11-8.48-111.18-48.36-18.83-41.56-30.33-138.57-30.82-142.68l5.55-.65c.12,1,11.88,100.25,30.35,141.02,17.95,39.62,107.33,45.16,108.23,45.22l1.59.09.73,1.41c.71,1.35,16.55,33.82-46.84,89.28-24.53,21.47-79.46,40.59-146.94,51.14-30.66,4.8-59.89,7.18-85.32,7.18Z"/>
        <path class="uuid-f100ea70-28d5-4629-9514-30751ccd08d9" d="m1410.54,1001.74c-.06-.52-1.28-12.8,11.39-28.3,18.17-22.22,64.89-50.89,184.34-61.33,1.71-.23,25.15-3.2,53.33,0l1.71.19.6,1.61c.28.75,6.73,18.58,2.07,41.23l-.3,1.46-1.38.56c-.61.25-15.28,6.07-50.02,4.11l-2.3-.13-5.81-43.24c-115.08,10.41-160.1,37.63-177.61,58.71-11.37,13.7-10.47,24.41-10.46,24.52l-5.55.61Zm204.35-45.93c25.95,1.24,39.74-2.1,43.91-3.37,3.04-16.58-.28-30.41-1.63-34.98-21.64-2.27-40.56-.82-47.45-.12l5.17,38.47Z"/>
        <path class="uuid-f100ea70-28d5-4629-9514-30751ccd08d9" d="m1718.93,975.01c-18.18,0-46.35-2.37-80.04-13.23l1.71-5.32c51.05,16.45,89.88,12.86,97.98,11.83,4.62-13.17,1.91-31.6.57-38.73-29.42,8.69-75.97-3.64-78-4.19l1.45-5.39c.5.13,50.25,13.31,77.7,3.33l2.95-1.07.73,3.05c.27,1.15,6.63,28.41-.78,46.6l-.59,1.44-1.53.26c-.74.13-8.73,1.42-22.14,1.42Z"/>
        <path class="uuid-f100ea70-28d5-4629-9514-30751ccd08d9" d="m1429.85,967.16c-.52-.79-12.69-19.66-7.61-38.75,2.67-10.05,9.59-18.18,20.58-24.21-.53-5.14-.95-18.73,7.65-28.55,6.36-7.27,16.15-10.78,29.12-10.47,3.22-4.26,14.46-17.51,30.74-19.09,11.17-1.08,22.19,3.55,32.8,13.78,6.29-.73,31.41-2.57,44.07,12.51,8.56,10.2,9.4,25.67,2.49,46l-5.29-1.8c6.24-18.35,5.74-32.01-1.48-40.61-12.24-14.57-40.07-10.44-40.35-10.39l-1.4.22-1-1c-9.67-9.67-19.52-14.09-29.3-13.14-16.42,1.6-27.47,17.77-27.58,17.93l-.88,1.3-1.57-.07c-11.92-.55-20.72,2.31-26.16,8.49-8.81,10.02-6.13,25.81-6.11,25.97l.36,2.04-1.85.94c-10.52,5.35-17.07,12.6-19.46,21.56-4.45,16.66,6.76,34.11,6.87,34.29l-4.67,3.06Z"/>
        <path class="uuid-f100ea70-28d5-4629-9514-30751ccd08d9" d="m1191.43,1887.61c-8.82,0-18.1-.9-27.88-2.84-55.35-10.98-82.75-46.06-95.99-73.55-14.29-29.68-15.52-56.38-15.56-57.5l-.04-.98.58-.79c.57-.78,57.97-79.75,131.16-237.67,33.53-72.36,48.29-125.33,58.06-160.38,12.21-43.79,17.77-63.78,43.38-63.78,4.08,0,7.56,1.77,10.33,5.26,26.06,32.8-18.91,231.83-23.01,249.66.77,1.42,2.78,4.74,6.69,8.89,78.26-47.92,209.9-126.91,228.43-127.59,13.51-.51,26.87,8.96,31.05,22,2.17,6.77,4.57,24.27-19.88,40.38-10.9,7.18-26.08,16.47-43.67,27.23-40.78,24.95-95.57,58.46-140.37,92.39,19.17-4.03,53.83-9.57,65.42-.05,13.21,10.88,23.98,25.95,5.21,55.28,7.57,2.81,23.87,11.4,25.3,33.47,1.15,17.93-14.95,27.82-35.34,40.35-13.12,8.06-28,17.2-41.86,30.4-7.55,7.18-15.57,17.5-24.87,29.45-30.22,38.84-70.3,90.36-137.12,90.37Zm-133.79-133.17c.36,4.97,2.66,28.92,15.04,54.55,18.46,38.21,49.4,61.87,91.95,70.31,80.59,15.99,126.2-42.66,159.51-85.48,9.43-12.13,17.58-22.6,25.43-30.07,14.29-13.6,29.43-22.9,42.79-31.11,19.52-11.99,33.63-20.66,32.69-35.23-1.58-24.48-24.44-29.49-24.67-29.54l-4.12-.85,2.38-3.47c17.94-26.08,12.14-39.22-2.07-50.94-11.21-9.21-56.5-.21-73.01,4.04l-12.85,3.31,10.43-8.21c46.7-36.75,106.99-73.63,151.02-100.56,17.54-10.73,32.69-20,43.51-27.13,14.97-9.86,21.39-22.26,17.63-34.01-3.38-10.57-14.61-18.55-25.52-18.12-12.53.46-97.62,48.29-227.63,127.94-14.03,8.61-22.62,13.93-22.62,13.93l-2.94-4.75s7.4-4.59,19.69-12.14c-5.35-5.9-7.25-10.2-7.34-10.4l-.37-.84.21-.9c17.17-74.03,44.34-220.68,24.3-245.91-1.71-2.15-3.6-3.15-5.96-3.15-21.36,0-26.23,17.47-38,59.69-9.82,35.22-24.65,88.45-58.37,161.23-69.45,149.85-124.81,228.95-131.13,237.79Z"/>
        <path class="uuid-f100ea70-28d5-4629-9514-30751ccd08d9" d="m1403.86,1615.84l-4.09-3.8c20.4-21.97-3.22-45.43-4.24-46.42l3.89-4.01c.29.28,28.58,28.23,4.44,54.23Z"/>
        <path class="uuid-f100ea70-28d5-4629-9514-30751ccd08d9" d="m1227.43,1609.61c-20.8,13.74-30.97,37.74-39.62,60.22-1.18,3.35-2.34,6.71-3.76,10.06.2-3.6.66-7.17,1.11-10.76,2.83-16.06,9.07-31.9,19.82-44.38,6.06-6.71,13.49-13,22.45-15.14h0Z"/>
        <path class="uuid-f100ea70-28d5-4629-9514-30751ccd08d9" d="m1275.15,1656.46c17.37-2.91,30.89,13.95,24.29,30.37-1-3.59-1.43-7-2.78-10.39-3.18-10.07-11.99-15.99-21.52-19.97h0Z"/>
        <path class="uuid-f100ea70-28d5-4629-9514-30751ccd08d9" d="m1311.58,1715.45c19.9-3.58,31.08,16.55,20.82,32.97-.13-4.01-.11-7.78-.62-11.34-.97-11.63-9.76-18-20.2-21.62h0Z"/>
        <path class="uuid-f100ea70-28d5-4629-9514-30751ccd08d9" d="m1171.9,1567.96c9.11.29,14.33,10.65,14.02,18.81-.13,2.81-.67,5.54-1.88,8.09-.62-1.33-.98-2.61-1.36-3.87-2.6-8.35-4.55-16.45-10.78-23.03h0Z"/>
        <path class="uuid-f100ea70-28d5-4629-9514-30751ccd08d9" d="m1671.25,1612.39c-18.78,0-35.61-1.23-49.52-3.49-56.46-9.18-80.06-43.56-89.91-70.78-10.62-29.33-7.97-56.08-7.85-57.2l.18-1.71,1.61-.61c.37-.14,37.31-14.44,38.11-40.85l5.58.17c-.82,27-32.28,41.95-40.05,45.23-.38,6.22-1.04,29.13,7.74,53.26,13.62,37.44,42.38,59.97,85.49,66.98,70.15,11.4,216-3.69,306.25-72.31,41.62-31.64,65.54-70.52,71.13-115.58-16.65-5.13-42.72-9.34-48.12-.12l-4.82-2.82c9.75-16.65,52.06-3.26,56.86-1.67l2.15.71-.25,2.25c-5.23,47.61-29.99,88.55-73.57,121.68-73.65,56-183.76,76.87-261.02,76.87Z"/>
        <path class="uuid-f100ea70-28d5-4629-9514-30751ccd08d9" d="m2314.15,2281.69c-15.95,0-30.66-3.2-43.38-10.97-45.99-28.1-46.5-66.81-46.96-100.96-.25-18.88-.49-36.72-8.64-50.29-12.54-20.89-12.77-23.6-11.65-29.75.76-4.17,1.91-10.48-4.27-33.43-7.34-27.27-6.91-33.64-6.06-46.31.73-10.79,1.83-27.1-1.83-67.38-15.04-165.44-8.45-307.61,19.59-422.57l5.43,1.32c-27.89,114.36-34.44,255.92-19.45,420.74,3.7,40.72,2.58,57.29,1.84,68.26-.84,12.44-1.22,18.11,5.88,44.49,6.51,24.16,5.22,31.21,4.37,35.88-.78,4.27-1.07,5.86,10.94,25.88,8.92,14.87,9.17,33.44,9.43,53.09.46,34.3.93,69.78,44.29,96.27,42.36,25.89,110.39-2.9,170.41-28.3,37.28-15.77,72.49-30.67,97.52-30.67,53.93,0,71.51-12.54,75.14-15.77-7.24-54.46-22.47-86.36-43.49-130.38-19.03-39.85-42.71-89.44-69.45-174.27-55.47-175.96-173.17-342.9-233.33-391.03-58.28-46.63-170.95-61.86-203.22-61.86s-64.27-16.98-65.57-17.71l2.73-4.88c.31.17,30.8,17,62.84,17s147.28,15.53,206.72,63.08c60.7,48.56,179.37,216.71,235.17,393.71,26.62,84.46,50.21,133.85,69.16,173.54,21.41,44.85,36.89,77.25,44.17,133.42l.15,1.15-.72.92c-.59.76-15.25,18.65-80.29,18.65-23.9,0-58.6,14.69-95.34,30.23-43.86,18.56-91.92,38.89-132.12,38.9Z"/>
        <path class="uuid-f100ea70-28d5-4629-9514-30751ccd08d9" d="m2188.84,1790.74l-5.14-2.19c10.81-25.31,65.09-156.5,72.09-254.41l5.57.4c-7.06,98.79-61.65,230.75-72.52,256.2Z"/>
        <path class="uuid-f100ea70-28d5-4629-9514-30751ccd08d9" d="m1166.95,1925.81c-8.28,0-17.75-1.15-28.67-3.76-63.88-15.3-106.13-93.79-111.41-121.05-5.5-28.41,25.08-48.87,26.38-49.73l3.07,4.67c-.29.19-28.75,19.28-23.97,44,5.53,28.54,48.67,102.66,107.23,116.67,54.82,13.13,70.1-12.3,82.38-32.72,1.05-1.75,2.08-3.45,3.09-5.08l4.74,2.96c-1,1.6-2.01,3.28-3.05,5-10.19,16.96-23.46,39.03-59.8,39.04Z"/>
        <path class="uuid-f100ea70-28d5-4629-9514-30751ccd08d9" d="m1026.85,2458.94c-2.12,0-4.22-.08-6.3-.23-31.08-2.3-72.29-23.21-92.13-109.73-25.34-110.48,2.85-254.09,30.97-355.11,30.42-109.3,67.3-193.69,67.67-194.53l5.11,2.25c-.37.84-37.11,84.92-67.42,193.85-27.93,100.37-55.96,242.96-30.88,352.29,15.1,65.85,45.22,102.3,87.1,105.4,72.88,5.39,172.44-92.85,221.87-219.02l5.2,2.04c-24.04,61.36-60.5,118.25-102.67,160.21-40.78,40.57-82.57,62.57-118.51,62.57Z"/>
        <path class="uuid-f100ea70-28d5-4629-9514-30751ccd08d9" d="m1182.13,2315.17c-18.02-238.6-11.35-390.12-11.28-391.63l5.58.26c-.07,1.5-6.72,152.72,11.28,390.95l-5.57.42Z"/>
        <path class="uuid-f100ea70-28d5-4629-9514-30751ccd08d9" d="m1205.51,2332.38c-2.7,0-5.46-.03-8.29-.09l.12-5.59c47.7,1.05,77.3-6.79,85.56-22.56,5.2-9.94,1.83-23.26-10.02-39.59-31.19-42.99-95.15-64.71-95.8-64.93l1.77-5.3c2.69.9,66.29,22.48,98.55,66.95,13.2,18.19,16.71,33.49,10.45,45.46-8.92,17.03-36.6,25.65-82.34,25.65Z"/>
        <path class="uuid-f100ea70-28d5-4629-9514-30751ccd08d9" d="m1288.68,2304.72l-4.09-3.8c.15-.16,14.39-16.35,8.61-58.46-3.76-27.41,6.61-48.57,15.77-67.23,5.82-11.87,11.32-23.07,11.98-33.96.8-13.15,4.93-18.9,10.16-26.18,6.85-9.54,16.24-22.61,25.49-61.06,16.09-66.9-39.24-209.46-39.8-210.89l5.2-2.04c2.32,5.91,56.52,145.63,40.02,214.23-9.5,39.51-19.26,53.09-26.38,63.01-5.07,7.06-8.42,11.72-9.12,23.26-.73,12-6.46,23.7-12.53,36.08-8.8,17.95-18.78,38.3-15.25,64.01,6.18,45.05-9.39,62.31-10.05,63.02Z"/>
        <path class="uuid-f100ea70-28d5-4629-9514-30751ccd08d9" d="m2278.64,2297.8h-868.96l-.79-1.49c-49.19-93.21-52.35-240.11-52.38-241.58l5.59-.1c.03,1.45,3.13,145.48,50.95,237.58h859.28l-2.87-23.55,5.55-.68,3.63,29.81Z"/>
        <path class="uuid-f100ea70-28d5-4629-9514-30751ccd08d9" d="m1830.39,1351.69s-.03,0-.04,0l.09-5.58c1.39.09,33.92-.11,38.17-45.62,4.44-47.53-23.16-114.25-23.44-114.92l5.15-2.15c1.16,2.78,28.41,68.66,23.84,117.59-4.67,50.1-42.38,50.68-43.79,50.68Z"/>
        <path class="uuid-f12e3e95-5f07-4ce7-9eae-6273d72c63ed" d="m1559.47,1316.79s32.59,1.44,62.04-20.08c0,0,24.98,55.69-11.26,65.71-36.24,10.02-50.78-45.63-50.78-45.63Z"/>
        <line class="uuid-447353b6-b438-4f1f-91ee-c1ce61873d76" x1="1591.64" y1="1312.36" x2="1604.76" y2="1344.25"/>
        <path class="uuid-cc356d36-9b50-4de2-bdad-16dbe9911b52" d="m1576.53,1321.92c-3.78.37-6.12,4.3-4.64,7.8,4.16,9.81,12.43,26.11,20.74,23.95,9.29-2.41-.05-21.34-4.42-29.25-1.16-2.1-3.45-3.31-5.84-3.07l-5.85.57Z"/>
        <path class="uuid-4acdbe55-9b3f-405e-ab95-903be46c9cf9" d="m1604.33,1309.18s14.27,40.7,8.83,51.59c0,0,12.16-5.38,15.19-13.78,3.03-8.4-4.84-47.99-4.84-47.99l-3.93-.42-13.32,8.84-1.93,1.75Z"/>
        <path class="uuid-87577677-ec49-4c38-a46b-1846a0290f9c" d="m1572.08,1268.86s-53.36,16.92-56.61,69.62c0,0,53.36-11.71,67.67-45.55,0,0,70.28,21.47,115.17-1.95,0,0-56.61-54.66-126.24-22.12Z"/>
        <path class="uuid-4acdbe55-9b3f-405e-ab95-903be46c9cf9" d="m1560.05,1277.08s42.81-7.58,67.51,23.97l45.01-1.22,24.46-9.3-20.06-15.41-31.8-12.96-25.68-3.42h-20.06l-20.55,7.09-18.84,11.25Z"/>
        <path class="uuid-f100ea70-28d5-4629-9514-30751ccd08d9" d="m1512.45,1342l.23-3.69c3.23-52.37,54.77-70.83,58.36-72.05,70.49-32.82,128.63,22.15,129.21,22.71l2.79,2.69-3.43,1.79c-41.27,21.53-102.04,6.42-114.92,2.83-15.98,33.02-66.43,44.44-68.62,44.92l-3.61.79Zm104.67-80.59c-13.66,0-28.46,2.78-43.86,9.97l-.34.13c-.5.16-48.94,16.15-54.33,63.28,12.16-3.37,50.54-15.93,61.97-42.95l.98-2.32,2.41.73c.67.21,65.89,19.71,109.34.05-9.22-7.63-38.35-28.9-76.18-28.9Z"/>
        <path class="uuid-358b7d9f-d2b3-493e-ae5f-682652c8f22b" d="m2085.79,1421.24c1.39-8.75,1.55-16.69.48-23.64-8.7-3.1-13.43-8.62-14.06-16.42-.49-5.93.29-13.72,2.39-23.78,0-.05,0-.1,0-.15.01-.12.05-.24.11-.34,2.42-11.43,6.12-24.16,10.05-37.63,3.15-10.83,6.42-22.02,8.96-32.53,7.89-32.58-1.03-43.47-1.12-43.58-.2-.24-.27-.57-.16-.86l12.71-36.08c.1-.29.34-.5.64-.56,3.77-.82,4.92-3.37,4.74-5.49-.23-2.66-2.46-5.44-6.27-5.59-1.53-.06-2.59.33-3.24,1.21-1.54,2.09-.45,6.59.1,8.14.07.21.07.44-.02.64l-13.94,32.17c-.12.27-.36.46-.64.51-.29.05-.58-.04-.78-.25-10.69-11.03-26.6-7.44-26.76-7.4-.32.08-.66-.04-.87-.29-.21-.25-.26-.6-.14-.9l15.57-36.55c.09-.22.27-.39.48-.47,2.99-1.17,4.47-3.24,3.96-5.52-.54-2.43-3.44-4.87-7.76-4.61-1.82.11-2.97.64-3.43,1.57-.93,1.89.9,5.29,1.68,6.45.18.26.2.59.06.87l-19.99,40.96c-.08.17-.22.31-.39.4-17.49,8.81-29.14,30.87-35.83,47.82-7.29,18.46-10.43,35.03-10.46,35.2-.08.43-.46.73-.9.71-1.05-.05-2.04-.15-2.97-.3-11.82-1.88-13.55-11.42-15.38-21.49-.39-2.14-.79-4.35-1.3-6.51-.88-3.79-3.69-6.87-7.15-7.85-2.56-.73-5.04-.14-6.79,1.61-2.12,2.13-5.07,7.85-.93,22.22,4.56,15.8,12.37,24.06,18.13,28.21,6.23,4.49,11.46,5.26,11.51,5.27,0,0,.01,0,.02,0,.26.04.48.19.62.42.13.23.16.51.06.76-.15.39-14.87,39.63-4.29,79.16,4.24,15.82,16.73,27.24,38.19,34.92,18.45,6.6,40.37,9.24,57.97,11.35,2.97.36,5.81.7,8.52,1.04-3.95-5.22-14.72-21.74-11.37-42.8Zm-45.83-151.76c-1.9-.3-3.29-1.58-3.08-2.85s1.91-2.05,3.82-1.75,3.29,1.58,3.08,2.85-1.91,2.05-3.81,1.75Zm37.89,1.31c1.91.3,3.29,1.58,3.08,2.85s-1.91,2.05-3.81,1.75-3.29-1.58-3.08-2.85,1.91-2.05,3.82-1.75Zm-15.96,109.83c-3.62,5.62-8.91,8.87-13.08,8.21-.43-.07-.85-.18-1.26-.33-2.37-.91-6.08-4.11-4.29-15.37,3.06-19.25,6.41-46.07,6.44-46.34.06-.48.5-.82.97-.76.47.06.82.5.76.97-.03.27-3.38,27.12-6.45,46.4-1.17,7.34,0,12.25,3.19,13.47,3.49,1.33,8.75-1.76,12.24-7.19,6.59-10.22,8.89-50.24,8.91-50.64.03-.48.44-.85.92-.82.48.03.85.44.82.92-.09,1.66-2.36,40.88-9.19,51.49Z"/>
        <path class="uuid-4acdbe55-9b3f-405e-ab95-903be46c9cf9" d="m2070.18,1228.48s7.66,17.6-.17,38.31c-7.82,20.71-2.25,77.7-20.61,120.78l3.63-.2s-17.24,42.64,34.03,53.35l-1.04-12.48,1.79-12.73.05-13.47-.67-4.52s-12.63-3.87-13.72-14.5c-1.1-10.63,1.53-22.76,1.53-22.76l9.61-37.04s11.19-36.79,12.61-50.04c1.41-13.25-1.21-25.98-3.35-30.04l.54-3.4,11.52-33.02s8.14-1.49,4.5-9.27c-3.64-7.78-13.57-3.78-10.26,4.64l-.21,2.76-13.46,32.38s-7.09-9.86-16.32-8.77Z"/>
        <path class="uuid-8805bc31-df66-4efb-a30e-9edd7140eb85" d="m2052.09,1239.2s-26.25.7-40.17,68.53c-13.93,67.83-29.13,108.63,4.81,129.71s41.33,3.09,30.6-17.09c-10.73-20.18-14.47-66.77-3.9-98.2,10.57-31.42,38.01-85.61,8.67-82.96Z"/>
        <circle class="uuid-993ff026-a2ff-409f-b323-8cc3166e13d2" cx="1444.31" cy="1194.24" r="4.49"/>
        <circle class="uuid-993ff026-a2ff-409f-b323-8cc3166e13d2" cx="1432.69" cy="1183.72" r="10.27"/>
        <circle class="uuid-993ff026-a2ff-409f-b323-8cc3166e13d2" cx="1646.19" cy="1110.42" r="4.49"/>
        <circle class="uuid-993ff026-a2ff-409f-b323-8cc3166e13d2" cx="1634.57" cy="1099.9" r="10.27"/>
        <path class="uuid-b9693df8-081d-4bfc-92c1-90bd00aa6ae8" d="m2183.73,1295.99c-26.98-4.29-49.38-.07-66.56,12.54-23.57,17.3-29.87,45.31-30.86,50.57,3.99,1.42,8.7,3.59,13.49,6.89,7.1,4.9,12.84,11.28,17.06,18.96,5.26,9.57,8.15,21.19,8.6,34.54.02.48-.36.89-.84.9-.06,0-.11,0-.17-.01-.41-.06-.72-.41-.73-.83-.99-29.56-14.09-44.66-24.91-52.12-4.7-3.24-9.38-5.37-13.31-6.75-.1.02-.22.03-.33.02h0c-.22-.04-.41-.15-.54-.32-3.95-1.32-7.03-1.87-8.42-2.07-1.98,9.63-2.72,17.08-2.25,22.74.55,6.77,4.58,11.66,11.98,14.56-1.33-6.82-3.48-10.04-3.51-10.08-.27-.4-.17-.94.23-1.21.4-.27.94-.17,1.21.22.11.16,2.7,3.99,4.05,12.25,0,.01,0,.02,0,.03,1.19,7.24,1.05,15.55-.4,24.69-3.92,24.65,12.17,42.91,12.34,43.09,0,0,0,.02.02.02.04.05.08.11.12.17.05.1,2.04,3.84,8.63,7.58,6.17,3.5,17.74,7.69,37.79,7.81,6.56.04,14.62.39,23.15.76,29.3,1.27,69.43,3.02,73.73-7.97,1.66-4.26-2.21-10.46-11.5-18.46-2.47,1.75-5.01,3.22-7.61,4.39-7.09,3.17-14.48,4.14-22.11,2.93-5.71-.91-11.56-3.04-17.5-6.4-10.34-5.84-18.61-14.76-23.91-25.79-4.97-10.35-7.08-21.86-6.1-33.28,1.83-21.21,13.94-37.8,32.4-44.38,23.34-8.32,35.61,2.08,40.84,9.02,4.42,5.87,7.1,13.45,7.53,21.36.42,7.68-1.39,14.96-4.98,19.98-7.48,10.45-20.64,15.61-28.74,11.28-3.12-1.67-9.7-7.34-3.43-23.94.17-.45.67-.68,1.13-.51.45.17.68.67.51,1.13-4.07,10.78-3.11,18.72,2.62,21.79,6.43,3.44,18.89-.14,26.49-10.76,7.15-9.98,5.99-27.97-2.52-39.27-4.94-6.56-16.57-16.37-38.86-8.43-17.8,6.35-29.48,22.38-31.25,42.88-2.04,23.72,9.39,46.25,29.12,57.4,13.38,7.56,26.18,8.7,38.05,3.4,2.58-1.15,5.03-2.6,7.37-4.27.03-.12.09-.24.17-.34.18-.22.45-.32.72-.3,13.93-10.43,23.33-29.14,26.82-45.09,4.65-21.25,6.73-51.67-9.84-75.94-12.72-18.65-34.58-30.55-64.97-35.39Z"/>
        <path class="uuid-b093405e-c8f3-490c-ac4e-7528c5ae997a" d="m2070.26,1328.21c-.48-.03-.89.34-.92.82-.02.4-2.33,40.42-8.91,50.64-3.5,5.43-8.76,8.52-12.24,7.19-3.19-1.22-4.35-6.13-3.19-13.47,3.07-19.28,6.42-46.13,6.45-46.4.06-.48-.29-.91-.76-.97-.48-.06-.91.28-.97.76-.03.27-3.38,27.09-6.44,46.34-1.79,11.27,1.92,14.47,4.29,15.37.41.15.83.27,1.26.33,4.17.66,9.45-2.58,13.08-8.21,6.83-10.61,9.1-49.83,9.19-51.49.03-.48-.35-.89-.82-.92Z"/>
        <path class="uuid-b093405e-c8f3-490c-ac4e-7528c5ae997a" d="m2184.01,1294.26c-27.47-4.37-50.31-.04-67.89,12.87-13.88,10.19-21.76,23.94-25.92,33.67-3.56,8.34-5.07,15.09-5.57,17.72-3.71-1.2-6.62-1.72-8.07-1.93,2.41-11.19,6.03-23.65,9.87-36.82,3.16-10.85,6.43-22.06,8.98-32.61,7.38-30.46.48-42.4-1.18-44.71l12.39-35.18c4.5-1.18,5.86-4.6,5.63-7.24-.29-3.34-3.17-6.99-7.94-7.19-2.13-.09-3.71.56-4.72,1.92-2.12,2.88-.69,8.05-.25,9.43l-13.31,30.69c-9.22-8.64-21.49-7.88-25.86-7.26l14.8-34.75c4.25-1.81,5.22-4.98,4.69-7.38-.71-3.22-4.22-6.3-9.57-5.98-2.49.15-4.14,1.01-4.89,2.54-1.32,2.7.71,6.45,1.52,7.76l-19.65,40.26c-17.84,9.15-29.64,31.47-36.42,48.63-6.46,16.36-9.69,31.26-10.39,34.73-12.44-.93-14.08-9.92-15.97-20.31-.39-2.16-.8-4.39-1.31-6.6-1.03-4.4-4.31-7.98-8.37-9.14-3.19-.91-6.29-.16-8.5,2.06-2.4,2.4-5.76,8.71-1.37,23.93,4.71,16.34,12.87,24.9,18.88,29.21,4.95,3.55,9.24,4.86,11.15,5.31-1,2.85-3.91,11.78-5.9,23.95-2.23,13.67-3.71,34.36,1.91,55.32,4.4,16.41,17.24,28.23,39.28,36.12,10.83,3.88,22.81,6.39,34.41,8.24,8.36,1.33,16.53,2.31,23.94,3.2,3.6.43,7.01.84,10.22,1.26,1.27,2.1,7.9,11.1,29.71,14.57,5.13.82,11.09,1.32,18.03,1.37,6.52.04,14.57.39,23.08.76,33.13,1.44,70.68,3.07,75.43-9.08,1.97-5.04-1.85-11.64-11.68-20.16,5.33-4.07,10.25-9.46,14.53-15.98,5.77-8.79,10.21-19.36,12.49-29.78,4.73-21.58,6.81-52.51-10.1-77.3-13-19.06-35.25-31.22-66.14-36.13Zm-95.36,168.74c-17.61-2.12-39.52-4.75-57.97-11.35-21.46-7.68-33.95-19.1-38.19-34.92-10.58-39.53,4.14-78.77,4.29-79.16.1-.25.07-.53-.06-.76-.13-.22-.36-.38-.62-.42,0,0-.01,0-.02,0-.05,0-5.28-.78-11.51-5.27-5.76-4.15-13.57-12.41-18.13-28.21-4.14-14.37-1.19-20.09.93-22.22,1.75-1.75,4.22-2.34,6.79-1.61,3.46.98,6.26,4.07,7.15,7.85.5,2.16.91,4.38,1.3,6.51,1.83,10.06,3.56,19.61,15.38,21.49.92.15,1.91.25,2.97.3.44.02.82-.28.9-.71.03-.17,3.18-16.74,10.46-35.2,6.69-16.95,18.34-39.01,35.83-47.82.17-.09.31-.23.39-.4l19.99-40.96c.14-.28.11-.61-.06-.87-.78-1.15-2.61-4.56-1.68-6.45.46-.93,1.61-1.46,3.43-1.57,4.32-.26,7.22,2.18,7.76,4.61.5,2.28-.98,4.35-3.96,5.52-.22.09-.39.26-.48.47l-15.57,36.55c-.13.3-.08.65.14.9.21.25.55.36.87.29.16-.04,16.07-3.63,26.76,7.4.2.21.5.3.78.25.29-.05.53-.24.64-.51l13.94-32.17c.09-.2.1-.43.02-.64-.55-1.56-1.64-6.05-.1-8.14.65-.87,1.7-1.27,3.24-1.21,3.81.15,6.04,2.93,6.27,5.59.18,2.12-.97,4.68-4.74,5.49-.3.06-.54.28-.64.56l-12.71,36.08c-.1.29-.04.62.16.86.09.11,9.01,11,1.12,43.58-2.54,10.51-5.81,21.71-8.96,32.53-3.92,13.47-7.63,26.19-10.05,37.63-.06.1-.09.22-.11.34,0,.05,0,.1,0,.15-2.1,10.06-2.88,17.85-2.39,23.78.64,7.79,5.37,13.31,14.06,16.42,1.07,6.94.91,14.89-.48,23.64-3.35,21.06,7.43,37.58,11.37,42.8-2.7-.35-5.55-.69-8.52-1.04Zm169.89-55.69c-3.49,15.95-12.89,34.66-26.82,45.09-.26-.02-.53.09-.72.3-.09.1-.14.22-.17.34-2.34,1.67-4.79,3.11-7.37,4.27-11.86,5.3-24.66,4.16-38.05-3.4-19.73-11.15-31.16-33.68-29.12-57.4,1.77-20.51,13.45-36.54,31.25-42.88,22.29-7.95,33.91,1.87,38.86,8.43,8.52,11.3,9.67,29.28,2.52,39.27-7.61,10.62-20.07,14.2-26.49,10.76-5.73-3.07-6.69-11.01-2.62-21.79.17-.45-.06-.95-.51-1.13-.45-.17-.96.06-1.13.51-6.26,16.6.31,22.27,3.43,23.94,8.1,4.33,21.26-.84,28.74-11.28,3.59-5.01,5.4-12.29,4.98-19.98-.44-7.91-3.11-15.49-7.53-21.36-5.23-6.94-17.49-17.34-40.84-9.02-18.46,6.58-30.58,23.17-32.4,44.38-.98,11.43,1.12,22.93,6.1,33.28,5.3,11.03,13.56,19.94,23.91,25.79,5.95,3.36,11.79,5.49,17.5,6.4,7.63,1.21,15.03.24,22.11-2.93,2.6-1.16,5.15-2.64,7.61-4.39,9.29,7.99,13.16,14.2,11.5,18.46-4.3,10.99-44.43,9.25-73.73,7.97-8.53-.37-16.59-.72-23.15-.76-20.05-.12-31.62-4.31-37.79-7.81-6.59-3.73-8.58-7.48-8.63-7.58-.03-.06-.07-.12-.12-.17,0,0,0-.02-.02-.02-.16-.18-16.26-18.44-12.34-43.09,1.45-9.14,1.59-17.44.4-24.69,0-.01,0-.02,0-.03-1.35-8.26-3.94-12.09-4.05-12.25-.27-.4-.81-.5-1.21-.22-.4.27-.5.82-.23,1.21.02.03,2.18,3.25,3.51,10.08-7.4-2.9-11.42-7.8-11.98-14.56-.47-5.66.27-13.11,2.25-22.74,1.39.2,4.47.75,8.42,2.07.13.16.32.28.54.31h0c.11.02.22.01.33-.01,3.93,1.38,8.61,3.5,13.31,6.75,10.82,7.46,23.92,22.56,24.91,52.12.01.42.33.77.73.83.05,0,.11.01.17.01.48-.02.86-.42.84-.9-.45-13.35-3.34-24.97-8.6-34.54-4.22-7.68-9.96-14.06-17.06-18.96-4.78-3.3-9.5-5.47-13.49-6.89,1-5.25,7.29-33.27,30.86-50.57,17.19-12.61,39.58-16.83,66.56-12.54,30.39,4.83,52.25,16.74,64.97,35.39,16.56,24.28,14.49,54.7,9.84,75.94Z"/>
        <ellipse class="uuid-f100ea70-28d5-4629-9514-30751ccd08d9" cx="2040.33" cy="1267.18" rx="3.45" ry="5.17" transform="translate(468.36 3083.11) rotate(-80.96)"/>
        <ellipse class="uuid-f100ea70-28d5-4629-9514-30751ccd08d9" cx="2077.49" cy="1273.09" rx="3.45" ry="5.17" transform="translate(493.85 3124.79) rotate(-80.96)"/>
        <path class="uuid-4acdbe55-9b3f-405e-ab95-903be46c9cf9" d="m2087.06,1440.73s32.01,13.46,47.54,6.4c15.53-7.06-25.45-97.79,32.56-118.53,58.01-20.74,100.11,47.64,72.17,87.45-27.94,39.81-72.02,23.39-72.02,23.39,0,0,21.46,27.92,48.38,20.82,26.92-7.1,38.03-34.61,38.03-34.61,0,0,42.66-97.3-53.41-127.21,0,0-94.22-30.26-113.99,60.66l-3.21-.08-7.41-1.64s-11.29,34.45,11.5,40.16c0,0,1.47,9.76.57,15.42-.9,5.66-2.6,16.31-.7,27.77Z"/>
        <path class="uuid-4acdbe55-9b3f-405e-ab95-903be46c9cf9" d="m2086.5,1237.26s1.9,21.31-4.86,57.17c-6.75,35.87-34.89,109.8,5.55,122.85,0,0,1.89-15.03.11-20.43l-6.76-3.24s-8.11-4.54-7.39-15.89c.72-11.35,3.14-23.66,3.14-23.66l10.46-37.52,8.6-30.69s7.4-29.95-2.05-42.61l12.62-36.48s7.67-1.49,4.5-9.27c-3.18-7.78-14.12-5.19-10.29,5.8l-13.63,33.98Z"/>
        <path class="uuid-4acdbe55-9b3f-405e-ab95-903be46c9cf9" d="m2087.19,1417.28s3.29-29.45,31.95-25.58c0,0-16.79-74.11,30.83-84.31,47.62-10.2,128.52,18,101.33,121.01,0,0,35-64.48-14.35-111.36,0,0-37.98-32.88-95.38-20.4,0,0-47.53,8.71-56.08,64.03l-2.39-1.66-7.41-1.64s-5.85,21.68.29,31.8l2.41,2.4,3.66,2.29,5.52,2.27s.42,19.27-.38,21.16Z"/>
        <path class="uuid-22e1e9fc-45e1-4c1e-96ba-57c22e26e2e9" d="m2109.61,1465.57c-5.04-2.58-2.76-10.24,2.87-9.72,8.7.8,23.61,1.49,36.97-1.25,20.41-4.19,48.13,9.98,65.92,13.51s-14.57,14.18-60.38,7.12c-25.54-3.93-38.97-6.37-45.39-9.66Z"/>
        <path class="uuid-22e1e9fc-45e1-4c1e-96ba-57c22e26e2e9" d="m2182.28,1370.84s-36.49,29.28-13.84,51.93c22.65,22.65,28.35-1.53,22.65-12.43-5.7-10.9,6.72-39.35,13.47-30.62,6.74,8.74-5.74,20,.33,24.21,6.07,4.22,29.52-7.39,19.22-27.38-10.29-19.99-36.07-11.31-41.84-5.73Z"/>
        <path class="uuid-f100ea70-28d5-4629-9514-30751ccd08d9" d="m2050.54,1273.14c2.82,1.66,5.16,3.27,8.2,3.63,2.48.38,4.75-.25,7.28-.4-3.77,7.3-15.01,4.95-15.48-3.23h0Z"/>
        <path class="uuid-4acdbe55-9b3f-405e-ab95-903be46c9cf9" d="m1982.89,1408.26s-10.99,29.1,11.4,41.32c0,0,9.77,29.31,99.52,32.97,0,0,4.07,13.43,30.12,17.3,26.05,3.87,142.88,6.31,118.25-22.59l-8.96,2.24-17.1,3.46-27.07-.2-28.29-.81-22.39-.41-17.91-3.26-13.03-4.88-10.28-9.35-35.51-4.29-29.1-6.51-20.15-9.36-14.45-12.01-8.34-22.39-6.72-1.22Z"/>
      </g>
    </g>
    <path class="uuid-839cddbd-6a34-4bcd-b2e9-9242f4911281" d="m1990.79,955.93c-16.44,17.98-67.93,65.74-101.28.76,12.43,0,25.28-2.82,33.49-12.24,0,0,29.03,15.33,67.79,11.47Z"/>
    <path class="uuid-839cddbd-6a34-4bcd-b2e9-9242f4911281" d="m1944.9,892.37s42.27-41.52,100.4-4.53c0,0-49.82-67.19-100.4,4.53Z"/>
    <path class="uuid-839cddbd-6a34-4bcd-b2e9-9242f4911281" d="m1865.84,904.45s26.84-26.36,63.76-2.88c0,0-31.64-42.66-63.76,2.88Z"/>
    <path class="uuid-7776d22d-c0cd-4c79-a7ba-6a40260142c4" d="m1889.35,1732.57l148.71-5.56s1.26-39.29-11.66-60.45c-12.92-21.17-30.14-62.97-94-36.06,0,0-40.54,23.05-43.05,102.07Z"/>
    <path class="uuid-4acdbe55-9b3f-405e-ab95-903be46c9cf9" d="m1962.18,1622.42s14.17,17.22,2.87,45.92c0,0,4.13,10.4-.54,19.02,0,0,4.84,4.49.72,10.76,0,0,12.38,18.12.72,31.57l71.22-3.23s2.69-110.86-74.99-104.05Zm33.82,66.55c-11.39,0-20.63-9.24-20.63-20.63s9.24-20.63,20.63-20.63,20.63,9.24,20.63,20.63-9.24,20.63-20.63,20.63Z"/>
    <circle class="uuid-5b9df43d-6e59-47ac-9c2d-ae29785fb3df" cx="1996" cy="1668.35" r="20.63"/>
    <circle class="uuid-14b28a14-f5a3-4b7d-8176-1a1dcc2e42d6" cx="1996" cy="1668.35" r="14.17"/>
    <circle class="uuid-5b9df43d-6e59-47ac-9c2d-ae29785fb3df" cx="1932.76" cy="1668.35" r="20.63"/>
    <circle class="uuid-14b28a14-f5a3-4b7d-8176-1a1dcc2e42d6" cx="1932.76" cy="1668.35" r="14.17"/>
    <path class="uuid-7776d22d-c0cd-4c79-a7ba-6a40260142c4" d="m1945.41,1707.36l6.1-1.7,5.83-8.97.27-10.67,6.1,1.26,8.34-1.26,2.15,16.15,6.91,5.47,4.13-1.26,4.04-5.92.18-13.36-9.33-14.17-7.35-3.5s-7-.72-9.42-.45-9.06,1.7-9.06,1.7c0,0-4.13.45-6.28,2.78s-10.05,14.98-10.05,14.98l1.08,7.89,2.78,9.33,3.59,1.7Z"/>
    <path class="uuid-8e49c174-4b97-4c50-81c2-a9d1bfdbe5a9" d="m1872.84,1755.89s89.34,12.38,178.67-4.84"/>
    <g>
      <path class="uuid-8e49c174-4b97-4c50-81c2-a9d1bfdbe5a9" d="m1877.79,1774.19s-.14,3.16.06,8.53"/>
      <path class="uuid-2ec429ea-4a22-4ba0-bd5c-e3757c60a00f" d="m1878.53,1792.99c2.27,24.16,10.86,66.25,42.31,93.67,44.71,38.99,127.57,17.72,133.17-107.94"/>
      <path class="uuid-8e49c174-4b97-4c50-81c2-a9d1bfdbe5a9" d="m2054.19,1773.57c.08-2.8.11-5.64.11-8.53"/>
    </g>
    <path class="uuid-8e49c174-4b97-4c50-81c2-a9d1bfdbe5a9" d="m1915.36,1795.71s8.07,29.6,84.49,23.68"/>
    <ellipse class="uuid-5b9df43d-6e59-47ac-9c2d-ae29785fb3df" cx="1964.38" cy="1681.49" rx="7.8" ry="5.25"/>
    <path class="uuid-8e49c174-4b97-4c50-81c2-a9d1bfdbe5a9" d="m1971.33,1684.31c-.81,27.45,19.17,29.06,19.11,9.69-.09-25.74-24.49-25.38-24.49-25.38h-3.14s-24.4-.36-24.49,25.38c-.07,19.38,19.91,17.76,19.11-9.69"/>
    <path class="uuid-8e49c174-4b97-4c50-81c2-a9d1bfdbe5a9" d="m1956.71,1694.87s6.98,6.22,15.21,0"/>
    <path class="uuid-8e49c174-4b97-4c50-81c2-a9d1bfdbe5a9" d="m1906.44,1683.24s-10.37,18.9-3.23,26.74,17.29-5.53,13.6-20.51"/>
    <path class="uuid-8e49c174-4b97-4c50-81c2-a9d1bfdbe5a9" d="m2022.72,1683.24s10.37,18.9,3.23,26.74-17.29-5.53-13.6-20.51"/>
    <path class="uuid-4acdbe55-9b3f-405e-ab95-903be46c9cf9" d="m1987.12,1626.37s10.58,10.23,5.02,24.22c0,0,21.17,3.59,21.71,15.43.54,11.84-16.68,20.81-16.68,20.81,0,0,14.89,18.3,5.56,41.62l35.34-1.44s3.95-78.93-50.95-100.64Z"/>
    <path class="uuid-4acdbe55-9b3f-405e-ab95-903be46c9cf9" d="m1900.11,1707.1s1.43,16.9,11.84,13.81c14.53-4.31,5.92-31.39,5.92-31.39,0,0,1.26,33.55-17.76,17.58Z"/>
    <path class="uuid-8e49c174-4b97-4c50-81c2-a9d1bfdbe5a9" d="m1889.35,1728.53s6.68-100.89,68.12-106.79c61.44-5.91,79.25,56.1,79.7,103.35"/>
    <path class="uuid-8e49c174-4b97-4c50-81c2-a9d1bfdbe5a9" d="m1858.35,1731.66s98.37,0,206.48-5.91c0,0,22.15,188.13-94.82,192.07-116.98,3.94-111.66-186.16-111.66-186.16Z"/>
    <path class="uuid-e9378502-eda7-4630-ba5e-ded565111dcb" d="m2019.24,1881.09s13.74,5.89,24.04,21.09"/>
    <path class="uuid-e9378502-eda7-4630-ba5e-ded565111dcb" d="m1920.65,1886.97s-13.74,5.89-24.04,21.09"/>
    <path class="uuid-8a4a9928-e4d3-4ed1-9a1e-b9e21d5b4327" d="m1887.35,1813.85s-14.85,1.7-29.07,13.32"/>
    <path class="uuid-8a4a9928-e4d3-4ed1-9a1e-b9e21d5b4327" d="m2047.14,1805.02s14.85,1.7,29.07,13.32"/>
  </g>
  <g id="uuid-d232ef7b-01c0-44f5-8e6f-1350a9c6b4fb" data-name="Capa 9">
    <circle class="uuid-3c7acf7a-379a-4e73-9193-2d0bad1dd95e" cx="1722.36" cy="1485.71" r="790.75"/>
    <polygon class="uuid-d43ed825-47f7-4940-a48a-0474afc12829" points="1838.88 2198.07 1858.38 2195.09 1884.89 2185.73 1909.46 2173.64 1927.26 2160.77 1932.59 2151.67 1927.26 2145.83 1921.29 2139.2 1898.93 2152.84 1868.52 2169.87 1839.53 2177.54 1837.84 2179.88 1838.88 2198.07"/>
    <polygon class="uuid-d43ed825-47f7-4940-a48a-0474afc12829" points="1605.77 2176.63 1586.28 2179.62 1559.76 2188.98 1535.2 2201.06 1517.39 2213.93 1512.06 2223.03 1517.39 2228.88 1523.37 2235.51 1545.72 2221.86 1576.14 2204.83 1605.12 2197.17 1606.81 2194.83 1605.77 2176.63"/>
    <rect class="uuid-65a5322e-ab0e-4bb5-a253-8271e9b40834" x="1608.57" y="1961" width="229.28" height="312.72" rx="24.96" ry="24.96"/>
    <rect class="uuid-cafea679-1fb5-4e18-96a1-28c09fe12a62" x="1640.74" y="1993.95" width="164.94" height="118.15" rx="13.01" ry="13.01"/>
    <path class="uuid-a9002d1d-dbf0-4ce7-9f35-e3f7655422bd" d="m1781.56,2045.75s-10.52-13.26-20.77-.68"/>
    <g class="uuid-a62e79ec-998f-4d2c-99da-696d9b200aa8">
      <path class="uuid-a9002d1d-dbf0-4ce7-9f35-e3f7655422bd" d="m1924.79,2144.5s12.52,1.01-5.4,13.74"/>
      <path class="uuid-a9002d1d-dbf0-4ce7-9f35-e3f7655422bd" d="m1930.44,2149.37s7.68,3.65-5.48,12.69-48.61,33.43-86.83,35.73l.63-19.18s33.48-6.98,55.7-21.98c22.22-15,25.14-18.39,28.7-16.38s-.42,8.49-6.21,11.61"/>
    </g>
    <g class="uuid-a62e79ec-998f-4d2c-99da-696d9b200aa8">
      <path class="uuid-a9002d1d-dbf0-4ce7-9f35-e3f7655422bd" d="m1528.51,2221.93c-5.79,3.12-9.77,9.6-6.21,11.61s6.48-1.38,28.7-16.38c22.22-15,56.39-20.83,56.39-20.83l.07-19.18c-38.22,2.29-73.81,25.54-86.96,34.57-13.15,9.04-5.48,12.69-5.48,12.69"/>
      <path class="uuid-a9002d1d-dbf0-4ce7-9f35-e3f7655422bd" d="m1520.68,2229.27s-12.52-1.01,5.4-13.74"/>
    </g>
    <path class="uuid-21b156e1-74c9-40c4-befb-ca761c4b716f" d="m1648.49,2274.11s-42.11,25.15,14.62,50.89c0,0-12.87,16.96-4.09,25.15,8.77,8.19,28.07-22.81,21.64-30.41s-60.05-18.13-8.97-46.01l-23.2.39Z"/>
    <path class="uuid-21b156e1-74c9-40c4-befb-ca761c4b716f" d="m1797.92,2274.11s42.11,25.15-14.62,50.89c0,0,12.87,16.96,4.09,25.15-8.77,8.19-28.07-22.81-21.64-30.41,6.43-7.6,60.05-18.13,8.97-46.01l23.2.39Z"/>
    <path class="uuid-cc356d36-9b50-4de2-bdad-16dbe9911b52" d="m1644.86,2124.54c-11,1.73-19.47,10.64-20.58,21.73-3.46,34.72-8.42,107.49,10.24,112.82,24.57,7.02,101.19,12.28,104.11-13.45,2.92-25.74-22.81-10.53-22.81-46.21,0-33.6,21.79-89.51-70.95-74.89Z"/>
    <polygon class="uuid-583d139b-a666-40d8-9883-2f3e44dde1d5" points="1677.58 2176.43 1677 2156.55 1698.64 2156.26 1697.47 2176.14 1716.48 2175.85 1717.06 2195.44 1697.18 2195.74 1697.76 2215.62 1677 2216.21 1677.29 2196.03 1657.11 2196.32 1657.4 2176.43 1677.58 2176.43"/>
    <polygon class="uuid-49c982b5-dd20-456a-8782-61eff55d8ab2" points="1649.22 2138.71 1726.71 2138.42 1726.71 2128.18 1648.92 2128.18 1649.22 2138.71"/>
    <path class="uuid-1c4f724c-77a3-4c61-8c7f-63cb50ea9500" d="m1638.69,2237.26v7.31h37.43v-7.31h-37.43Z"/>
    <path class="uuid-1c4f724c-77a3-4c61-8c7f-63cb50ea9500" d="m1692.5,2237.26v7.31h37.43v-7.31h-37.43Z"/>
    <circle class="uuid-cd3407b1-f152-4868-be60-66cf24feebb3" cx="1780.82" cy="2237.85" r="19.3"/>
    <circle class="uuid-715d40be-b17d-4047-b5a2-84480c877e0b" cx="1809.04" cy="2199.39" r="10.09"/>
    <circle class="uuid-1c4f724c-77a3-4c61-8c7f-63cb50ea9500" cx="1779.79" cy="2132.71" r="9.21"/>
    <polygon class="uuid-cc7498e3-5e63-4128-90c6-c306dc0d556b" points="1755.37 2193.1 1777.6 2192.81 1766.49 2172.92 1755.37 2193.1"/>
    <path class="uuid-cc356d36-9b50-4de2-bdad-16dbe9911b52" d="m1667.81,2003.99c-9.66-.51-15.85,7.08-17.11,16.67-3.03,23-5.71,74.16,5.46,79.15,14.82,6.63,67.46,9.36,73.7-4.29,14.24-31.16-56.15-21.06-43.28-58.1,5.84-16.81-3.98-32.66-18.76-33.43Z"/>
    <path class="uuid-a9002d1d-dbf0-4ce7-9f35-e3f7655422bd" d="m1666.81,2045.75s10.52-13.26,20.77-.68"/>
    <path class="uuid-f100ea70-28d5-4629-9514-30751ccd08d9" d="m1705.66,2064.12c8.73,3.21,17.43,6.06,26.5,3.45,2.87-.81,5.77-2.05,8.98-3.45-7.04,14.44-27.81,13.14-35.48,0h0Z"/>
  </g>
  <g id="uuid-a7ae2e13-5a3a-4f9c-b1a2-44b970724242" data-name="Capa 11">
    <path class="uuid-4acdbe55-9b3f-405e-ab95-903be46c9cf9" d="m1734.53,1962.78s8.77,15.21-.58,32.17c0,0,45.04,62,.58,118.15,0,0,36.26,90.07,3.51,159.09l4.48,3.51,48.35-1.17,30.41-.78,14.04-12.67,3.51-15.21-1.75-58.49.78-111.91.78-84.03-1.17-13.84-13.45-13.06-14.43-3.12-75.06,1.36Z"/>
    <path class="uuid-4acdbe55-9b3f-405e-ab95-903be46c9cf9" d="m1780.16,1964.15s14.04,17.55.39,31.19c0,0,23.4,35.09,1.95,116.2,0,0,2.63,4.48,1.17,12.67l5.26,6.14-1.17,7.31-5.26,6.14s22.62,32.46,1.56,76.13l9.75,4.68,3.51,5.46,2.34,10.92-1.17,8.19-5.85,7.02-7.8,1.95s9.36,7.02,4.29,15.99l23.01.39,14.82-4.29,8.97-10.92,2.73-6.24v-266.71l-3.12-11.7-8.97-8.97-7.41-3.12h-11.7l-27.29,1.56Z"/>
    <path class="uuid-4acdbe55-9b3f-405e-ab95-903be46c9cf9" d="m1780.16,2218.18s14.82,19.3,0,39.19c0,0,16.77,1.17,19.5-15.4s-19.5-23.79-19.5-23.79Z"/>
    <polygon class="uuid-4acdbe55-9b3f-405e-ab95-903be46c9cf9" points="1766.51 2176.46 1764.75 2193.42 1776.65 2192.84 1766.51 2176.46"/>
    <path class="uuid-4acdbe55-9b3f-405e-ab95-903be46c9cf9" d="m1806.86,2190.69s5.07,11.89,2.53,18.72,8.97-2.92,8.97-2.92l-.39-8.19-3.7-6.63-7.41-.97Z"/>
    <path class="uuid-4acdbe55-9b3f-405e-ab95-903be46c9cf9" d="m1778.21,2125.57s5.85,5.85,1.56,18.33l7.21-5.46,1.56-6.43-2.73-5.26-5.46-3.12-2.14,1.95Z"/>
    <path class="uuid-4acdbe55-9b3f-405e-ab95-903be46c9cf9" d="m1838.06,2186.99s41.92-5.65,87.34-40.16l2.53-.58.58,3.51,3.31,2.14-.39,4.29-5.26,5.85s-44.45,35.09-88.51,36.26l.39-11.31Z"/>
    <polygon class="uuid-4acdbe55-9b3f-405e-ab95-903be46c9cf9" points="1782.1 2275.5 1798.29 2275.11 1809.2 2283.49 1811.74 2294.02 1810.18 2305.52 1801.6 2315.08 1783.27 2326.58 1790.1 2335.74 1790.1 2345.49 1785.42 2351.92 1779.57 2352.51 1774.7 2347.25 1767.87 2338.28 1763.78 2323.07 1765.73 2319.56 1775.48 2315.08 1786 2308.06 1794.39 2302.99 1796.73 2296.56 1795.36 2291.29 1787.17 2281.54 1782.1 2275.5"/>
  </g>
</svg>